<?xml version="1.0" encoding="UTF-8" standalone="no"?>
<svg
   xmlns:dc="http://purl.org/dc/elements/1.1/"
   xmlns:cc="http://creativecommons.org/ns#"
   xmlns:rdf="http://www.w3.org/1999/02/22-rdf-syntax-ns#"
   xmlns:svg="http://www.w3.org/2000/svg"
   xmlns="http://www.w3.org/2000/svg"
   xmlns:sodipodi="http://sodipodi.sourceforge.net/DTD/sodipodi-0.dtd"
   xmlns:inkscape="http://www.inkscape.org/namespaces/inkscape"
   height="32"
   width="32"
   version="1.1"
   id="svg4"
   sodipodi:docname="bch.svg"
   inkscape:version="0.92.5 (2060ec1f9f, 2020-04-08)">
  <metadata
     id="metadata10">
    <rdf:RDF>
      <cc:Work
         rdf:about="">
        <dc:format>image/svg+xml</dc:format>
        <dc:type
           rdf:resource="http://purl.org/dc/dcmitype/StillImage" />
      </cc:Work>
    </rdf:RDF>
  </metadata>
  <defs
     id="defs8" />
  <sodipodi:namedview
     pagecolor="#ffffff"
     bordercolor="#666666"
     borderopacity="1"
     objecttolerance="10"
     gridtolerance="10"
     guidetolerance="10"
     inkscape:pageopacity="0"
     inkscape:pageshadow="2"
     inkscape:window-width="1740"
     inkscape:window-height="822"
     id="namedview6"
     showgrid="false"
     inkscape:zoom="16"
     inkscape:cx="0.19898032"
     inkscape:cy="16.110437"
     inkscape:window-x="739"
     inkscape:window-y="59"
     inkscape:window-maximized="0"
     inkscape:current-layer="svg4" />
  <path
     style="fill:#766054;fill-rule:evenodd"
     d="M 16,0 C 7.163,0 0,7.163 0,16 0,24.837 7.163,32 16,32 24.837,32 32,24.837 32,16 32,7.163 24.837,0 16,0 Z M 6.7617188,7.96875 c 3.0203924,-0.013681 3.6953122,-0.00103 3.6953122,0.068359 0,0.046708 -0.180404,0.218642 -0.402343,0.3828125 -0.9724356,0.7193126 -2.0267927,2.0200585 -2.6289068,3.2441405 -0.7453412,1.515258 -0.994171,2.571166 -1,4.261719 -0.00482,1.366066 0.1018513,2.051554 0.4941407,3.197266 0.5849898,1.708541 1.80138,3.435444 3.1113281,4.419922 0.235025,0.176639 0.425781,0.358986 0.425781,0.404297 0,0.119699 -6.3484641,0.121629 -6.394031,0.002 l -1.406e-4,-0.002 c -0.016899,-0.0444 -0.022798,-3.653657 -0.013672,-8.021485 l 0.015625,-7.9414064 z m 18.4921872,0 2.701094,0.015625 v 8.005859 8.00586 l -2.701094,0.01758 c -3.077568,0.01387 -3.69713,0.0019 -3.679687,-0.07031 0.01156,-0.04786 0.290598,-0.312972 0.61914,-0.58789 1.680246,-1.405998 2.851858,-3.410583 3.28711,-5.621094 0.15949,-0.810006 0.15949,-2.676322 0,-3.486328 C 25.046284,12.042955 23.851927,9.9991589 22.189453,8.6191406 21.862268,8.3475449 21.585755,8.0870753 21.574219,8.0390625 21.556679,7.9663415 22.170478,7.954857 25.253906,7.96875 Z m -9.171875,0.021484 c 0.578808,0.00641 1.161667,0.056977 1.59375,0.1484375 1.52955,0.3237532 2.891315,1.0696415 4.015625,2.2011725 1.259962,1.268053 2.06069,2.915368 2.263672,4.65625 0.09041,0.775432 0.04568,1.993748 -0.09961,2.671875 -0.526793,2.458655 -2.176924,4.51694 -4.507813,5.621093 -1.255761,0.594861 -2.853981,0.845156 -4.30664,0.673829 C 11.664791,23.564697 8.8947075,21.017511 8.1582031,17.636719 7.993202,16.879281 7.9917172,15.121052 8.15625,14.357422 8.8451136,11.161097 11.312706,8.7335314 14.511719,8.1035156 14.928368,8.0214583 15.503223,7.9838227 16.082031,7.990234 Z M 15.61512,9.5635746 15.195279,9.6760314 c -0.23129,0.06102 -0.437001,0.1271329 -0.457328,0.1474453 -0.02022,0.020216 0.03925,0.3347693 0.13245,0.6997363 0.252159,0.987606 0.241288,1.054096 -0.197425,1.164561 -0.584651,0.147216 -0.591525,0.143166 -0.742221,-0.464825 -0.07602,-0.306698 -0.173729,-0.69356 -0.217418,-0.859676 l -0.07997,-0.302386 -0.419842,0.109962 c -0.231289,0.06102 -0.437091,0.127197 -0.457327,0.147445 -0.02022,0.02022 0.05599,0.403812 0.169935,0.852178 0.161689,0.636071 0.185419,0.83671 0.107467,0.912157 -0.05496,0.05318 -0.527082,0.197001 -1.049605,0.31988 -0.522522,0.122885 -0.975519,0.238241 -1.004622,0.254903 -0.0291,0.01676 0.0032,0.254312 0.07247,0.529801 0.100839,0.40028 0.153554,0.490642 0.259902,0.449831 0.0732,-0.02809 0.312194,-0.08827 0.5298,-0.13495 0.444497,-0.09531 0.74319,0.02775 0.887167,0.367361 0.160552,0.378726 1.237032,4.836971 1.237032,5.12307 0,0.336705 -0.192666,0.481782 -0.774707,0.587279 l -0.31738,0.05997 0.03249,0.527301 c 0.01849,0.290577 0.05874,0.551069 0.08747,0.579782 0.02873,0.02873 0.478889,-0.04574 1.002123,-0.167437 0.523234,-0.121669 1.014844,-0.210139 1.092089,-0.194927 0.104242,0.02046 0.192605,0.246208 0.34237,0.874671 0.110973,0.465728 0.23822,0.84718 0.282394,0.84718 0.04416,0 0.245458,-0.04162 0.447331,-0.09247 0.431615,-0.108683 0.433824,-0.11714 0.192428,-1.037108 -0.09754,-0.371734 -0.157106,-0.73049 -0.132451,-0.794701 0.05059,-0.13188 0.738982,-0.348471 0.904659,-0.284893 0.0595,0.02293 0.194555,0.397753 0.299887,0.834685 0.10533,0.436933 0.227612,0.819494 0.272398,0.847181 0.0625,0.03862 0.766838,-0.100646 0.872172,-0.172435 0.01088,-0.0074 -0.07188,-0.379087 -0.184932,-0.824689 -0.113045,-0.445604 -0.204922,-0.855913 -0.204922,-0.912157 0,-0.05624 0.270381,-0.201341 0.602273,-0.322378 1.6446,-0.599819 2.360311,-1.585084 2.114204,-2.916401 -0.106162,-0.574349 -0.257039,-0.888572 -0.597275,-1.24703 -0.252684,-0.266218 -0.86313,-0.512307 -1.267023,-0.512307 -0.247375,0 -0.241756,-0.125918 0.02249,-0.507309 0.429733,-0.620105 0.411871,-1.355966 -0.04998,-2.084214 -0.388967,-0.613332 -0.750743,-0.754472 -1.93427,-0.757215 l -0.98463,-0.0026 -0.144945,-0.534799 C 15.85986,10.491463 15.754013,10.09721 15.705097,9.9083765 Z m 0.552293,3.0838374 c 0.605573,0 0.698563,0.01959 0.897161,0.204923 0.501866,0.468465 0.579703,0.968306 0.224916,1.424464 -0.281547,0.36199 -0.590876,0.566221 -1.177057,0.782205 -0.727278,0.267975 -1.049985,0.304349 -1.142069,0.12995 -0.106021,-0.200816 -0.509809,-1.818994 -0.509809,-2.044229 0,-0.26086 0.809893,-0.497313 1.706858,-0.497313 z m 1.03211,3.258772 c 1.042545,-0.04371 1.639382,0.325093 1.639382,1.059601 0,0.746 -0.483198,1.220951 -1.609393,1.581904 -0.40893,0.131067 -0.882378,0.263701 -1.049605,0.294889 -0.297745,0.05552 -0.305798,0.05142 -0.392352,-0.259902 -0.206338,-0.742166 -0.499811,-2.013287 -0.499811,-2.159186 0,-0.129957 0.128907,-0.188145 0.727226,-0.334875 0.440673,-0.108068 0.837039,-0.167863 1.184553,-0.182431 z"
     id="path2"
     inkscape:connector-curvature="0"
     sodipodi:nodetypes="ssssscscscccscccccccccccsccsccscsccsscccsccccccccccccccccccscccccccsccccccccscccscccccccsccccsssscccscs" />
</svg>
