<?xml version="1.0" encoding="UTF-8" standalone="no"?>
<svg
   xmlns:dc="http://purl.org/dc/elements/1.1/"
   xmlns:cc="http://creativecommons.org/ns#"
   xmlns:rdf="http://www.w3.org/1999/02/22-rdf-syntax-ns#"
   xmlns:svg="http://www.w3.org/2000/svg"
   xmlns="http://www.w3.org/2000/svg"
   xmlns:sodipodi="http://sodipodi.sourceforge.net/DTD/sodipodi-0.dtd"
   xmlns:inkscape="http://www.inkscape.org/namespaces/inkscape"
   width="32px"
   height="32px"
   viewBox="0 0 32 32"
   version="1.1"
   id="svg14"
   sodipodi:docname="bep20.svg"
   inkscape:version="0.92.5 (2060ec1f9f, 2020-04-08)">
  <metadata
     id="metadata18">
    <rdf:RDF>
      <cc:Work
         rdf:about="">
        <dc:format>image/svg+xml</dc:format>
        <dc:type
           rdf:resource="http://purl.org/dc/dcmitype/StillImage" />
      </cc:Work>
    </rdf:RDF>
  </metadata>
  <sodipodi:namedview
     pagecolor="#ffffff"
     bordercolor="#666666"
     borderopacity="1"
     objecttolerance="10"
     gridtolerance="10"
     guidetolerance="10"
     inkscape:pageopacity="0"
     inkscape:pageshadow="2"
     inkscape:window-width="1910"
     inkscape:window-height="815"
     id="namedview16"
     showgrid="false"
     inkscape:zoom="16.954788"
     inkscape:cx="7.262669"
     inkscape:cy="16.734083"
     inkscape:window-x="273"
     inkscape:window-y="116"
     inkscape:window-maximized="0"
     inkscape:current-layer="svg14" />
  <title
     id="title2">black</title>
  <defs
     id="defs4" />
  <g
     id="Page-1"
     stroke="none"
     stroke-width="1"
     fill="none"
     fill-rule="evenodd">
    <g
       id="black"
       fill-rule="nonzero">
      <g
         id="nano">
        <path
           style="fill:#766054"
           d="M 16 0 C 7.163444 0 0 7.163444 0 16 C 0 24.836556 7.163444 32 16 32 C 24.836556 32 32 24.836556 32 16 C 32 7.163444 24.836556 0 16 0 z M 21.988281 9.6113281 C 22.569879 9.6113281 23.020616 9.740017 23.341797 9.9960938 C 23.665148 10.25217 23.826172 10.608507 23.826172 11.066406 C 23.826172 11.331163 23.757812 11.578559 23.621094 11.808594 C 23.484374 12.036458 23.198134 12.342448 22.759766 12.726562 L 21.720703 13.638672 L 23.859375 13.638672 L 23.859375 14.560547 L 20.328125 14.560547 L 20.328125 13.638672 L 22.101562 12.072266 C 22.259983 11.929037 22.37717 11.789063 22.453125 11.652344 C 22.52908 11.515625 22.566406 11.374133 22.566406 11.226562 C 22.566406 10.998698 22.490016 10.81467 22.335938 10.675781 C 22.184028 10.536893 21.98047 10.46875 21.726562 10.46875 C 21.531251 10.46875 21.318143 10.511068 21.085938 10.595703 C 20.853732 10.678168 20.6046 10.801866 20.339844 10.966797 L 20.339844 9.8984375 C 20.621962 9.8051215 20.902127 9.735243 21.177734 9.6875 C 21.453342 9.6375867 21.723525 9.6113281 21.988281 9.6113281 z M 26.759766 9.6113281 C 27.397787 9.6113281 27.891059 9.8311639 28.238281 10.269531 C 28.585503 10.705729 28.757812 11.327474 28.757812 12.134766 C 28.757812 12.939888 28.585503 13.561632 28.238281 14 C 27.891059 14.436197 27.397787 14.654297 26.759766 14.654297 C 26.119575 14.654297 25.626519 14.436197 25.279297 14 C 24.932074 13.561632 24.757812 12.939888 24.757812 12.134766 C 24.757812 11.327474 24.932074 10.705729 25.279297 10.269531 C 25.626519 9.8311639 26.119575 9.6113281 26.759766 9.6113281 z M 3.2421875 9.6992188 L 5.1230469 9.6992188 C 5.7979601 9.6992188 6.2862414 9.8018668 6.5878906 10.005859 C 6.8917101 10.209853 7.0429688 10.537109 7.0429688 10.986328 C 7.0429688 11.222873 6.9876302 11.424696 6.8769531 11.591797 C 6.7662761 11.756728 6.6069876 11.878689 6.3964844 11.958984 C 6.6655816 12.03711 6.873915 12.182075 7.0214844 12.392578 C 7.1690538 12.603081 7.2421875 12.860026 7.2421875 13.166016 C 7.2421875 13.634766 7.0844184 13.984809 6.7675781 14.214844 C 6.4507379 14.444878 5.968967 14.560547 5.3222656 14.560547 L 3.2421875 14.560547 L 3.2421875 9.6992188 z M 8.3222656 9.6992188 L 11.705078 9.6992188 L 11.705078 10.646484 L 9.5761719 10.646484 L 9.5761719 11.552734 L 11.578125 11.552734 L 11.578125 12.5 L 9.5761719 12.5 L 9.5761719 13.613281 L 11.775391 13.613281 L 11.775391 14.560547 L 8.3222656 14.560547 L 8.3222656 9.6992188 z M 12.876953 9.6992188 L 14.957031 9.6992188 C 15.575521 9.6992188 16.049045 9.8376759 16.378906 10.113281 C 16.710938 10.386719 16.876953 10.777344 16.876953 11.285156 C 16.876953 11.795139 16.710938 12.187283 16.378906 12.462891 C 16.049045 12.736329 15.575521 12.873047 14.957031 12.873047 L 14.130859 12.873047 L 14.130859 14.560547 L 12.876953 14.560547 L 12.876953 9.6992188 z M 26.759766 10.46875 C 26.490669 10.46875 26.298611 10.592231 26.183594 10.841797 C 26.068576 11.089192 26.011719 11.517361 26.011719 12.125 C 26.011719 12.739149 26.068576 13.172092 26.183594 13.423828 C 26.298611 13.675564 26.490669 13.800781 26.759766 13.800781 C 27.026693 13.800781 27.217014 13.675564 27.332031 13.423828 C 27.447049 13.172092 27.505859 12.739149 27.505859 12.125 C 27.505859 11.517361 27.447049 11.089192 27.332031 10.841797 C 27.219184 10.592231 27.028863 10.46875 26.759766 10.46875 z M 4.4941406 10.552734 L 4.4941406 11.582031 L 5.1875 11.582031 C 5.3849826 11.582031 5.5347222 11.537977 5.6367188 11.451172 C 5.7387153 11.364366 5.7910156 11.235677 5.7910156 11.066406 C 5.7910156 10.899306 5.7387152 10.772352 5.6367188 10.685547 C 5.5347222 10.596571 5.3849826 10.552734 5.1875 10.552734 L 4.4941406 10.552734 z M 14.130859 10.607422 L 14.130859 11.964844 L 14.822266 11.964844 C 15.065321 11.964844 15.25434 11.90625 15.386719 11.789062 C 15.519097 11.669709 15.585938 11.50217 15.585938 11.285156 C 15.585938 11.068142 15.519097 10.90039 15.386719 10.783203 C 15.25434 10.666016 15.065321 10.607422 14.822266 10.607422 L 14.130859 10.607422 z M 17.394531 12.167969 L 19.439453 12.167969 L 19.439453 13.115234 L 17.394531 13.115234 L 17.394531 12.167969 z M 4.4941406 12.433594 L 4.4941406 13.707031 L 5.2304688 13.707031 C 5.4822049 13.707031 5.671007 13.653212 5.796875 13.546875 C 5.9249132 13.440538 5.9882814 13.28125 5.9882812 13.066406 C 5.9882813 12.855903 5.9266493 12.697917 5.8007812 12.59375 C 5.6749133 12.487413 5.4843749 12.433594 5.2304688 12.433594 L 4.4941406 12.433594 z M 11.591797 18.658203 C 12.27322 18.658203 12.816623 18.887804 13.224609 19.345703 C 13.632595 19.801432 13.835929 20.413411 13.835938 21.181641 C 13.835938 21.9477 13.632595 22.559679 13.224609 23.017578 C 12.816623 23.473307 12.27322 23.701172 11.591797 23.701172 C 10.908203 23.701172 10.361328 23.473307 9.9511719 23.017578 C 9.5431857 22.561849 9.3378906 21.94987 9.3378906 21.181641 C 9.3378906 20.413411 9.5431857 19.801432 9.9511719 19.345703 C 10.361328 18.887804 10.908203 18.658203 11.591797 18.658203 z M 4.8730469 18.746094 L 8.984375 18.746094 L 8.984375 19.300781 L 7.2578125 19.300781 L 7.2578125 23.607422 L 6.5976562 23.607422 L 6.5976562 19.300781 L 4.8730469 19.300781 L 4.8730469 18.746094 z M 14.865234 18.746094 L 15.523438 18.746094 L 15.523438 20.800781 L 17.705078 18.746094 L 18.550781 18.746094 L 16.138672 21.011719 L 18.722656 23.607422 L 17.857422 23.607422 L 15.523438 21.265625 L 15.523438 23.607422 L 14.865234 23.607422 L 14.865234 18.746094 z M 19.238281 18.746094 L 22.310547 18.746094 L 22.310547 19.300781 L 19.894531 19.300781 L 19.894531 20.738281 L 22.208984 20.738281 L 22.208984 21.292969 L 19.894531 21.292969 L 19.894531 23.052734 L 22.369141 23.052734 L 22.369141 23.607422 L 19.238281 23.607422 L 19.238281 18.746094 z M 23.449219 18.746094 L 24.333984 18.746094 L 26.490234 22.8125 L 26.490234 18.746094 L 27.126953 18.746094 L 27.126953 23.607422 L 26.242188 23.607422 L 24.087891 19.541016 L 24.087891 23.607422 L 23.449219 23.607422 L 23.449219 18.746094 z M 11.591797 19.193359 C 11.114366 19.193359 10.73329 19.37066 10.451172 19.726562 C 10.171224 20.082465 10.03125 20.567491 10.03125 21.181641 C 10.03125 21.79362 10.171224 22.27691 10.451172 22.632812 C 10.73329 22.988715 11.114366 23.167969 11.591797 23.167969 C 12.069228 23.167969 12.446832 22.988715 12.724609 22.632812 C 13.004557 22.27691 13.144531 21.79362 13.144531 21.181641 C 13.144531 20.567491 13.004557 20.082465 12.724609 19.726562 C 12.446832 19.37066 12.069228 19.193359 11.591797 19.193359 z "
           id="Oval" />
        <g
           aria-label="ERC20"
           style="font-size:8px;font-family:Verdana;text-anchor:middle;fill:#ffffff"
           id="text7" />
        <g
           aria-label="TEST"
           style="font-size:8px;font-family:Verdana;text-anchor:middle;fill:#ffffff"
           id="text9" />
      </g>
    </g>
  </g>
  <g
     aria-label="TOKEN"
     style="font-style:normal;font-weight:normal;font-size:8px;line-height:1.25;font-family:sans-serif;letter-spacing:0px;word-spacing:0px;fill:#000000;fill-opacity:1;stroke:none"
     id="text820" />
  <g
     aria-label="BEP-20"
     style="font-style:normal;font-weight:normal;font-size:8px;line-height:1.25;font-family:sans-serif;letter-spacing:0px;word-spacing:0px;fill:#000000;fill-opacity:1;stroke:none"
     id="text820-3" />
</svg>
