<?xml version="1.0" encoding="UTF-8" standalone="no"?>
<svg
   xmlns:dc="http://purl.org/dc/elements/1.1/"
   xmlns:cc="http://creativecommons.org/ns#"
   xmlns:rdf="http://www.w3.org/1999/02/22-rdf-syntax-ns#"
   xmlns:svg="http://www.w3.org/2000/svg"
   xmlns="http://www.w3.org/2000/svg"
   xmlns:sodipodi="http://sodipodi.sourceforge.net/DTD/sodipodi-0.dtd"
   xmlns:inkscape="http://www.inkscape.org/namespaces/inkscape"
   width="32"
   height="32"
   version="1.1"
   id="svg4"
   sodipodi:docname="bnb.svg"
   inkscape:version="0.92.5 (2060ec1f9f, 2020-04-08)">
  <metadata
     id="metadata10">
    <rdf:RDF>
      <cc:Work
         rdf:about="">
        <dc:format>image/svg+xml</dc:format>
        <dc:type
           rdf:resource="http://purl.org/dc/dcmitype/StillImage" />
      </cc:Work>
    </rdf:RDF>
  </metadata>
  <defs
     id="defs8" />
  <sodipodi:namedview
     pagecolor="#ffffff"
     bordercolor="#666666"
     borderopacity="1"
     objecttolerance="10"
     gridtolerance="10"
     guidetolerance="10"
     inkscape:pageopacity="0"
     inkscape:pageshadow="2"
     inkscape:window-width="2063"
     inkscape:window-height="844"
     id="namedview6"
     showgrid="false"
     inkscape:zoom="10.429825"
     inkscape:cx="0.60254608"
     inkscape:cy="11.068199"
     inkscape:window-x="193"
     inkscape:window-y="111"
     inkscape:window-maximized="0"
     inkscape:current-layer="svg4" />
  <path
     d="M 16,32 C 7.163,32 0,24.837 0,16 0,7.163 7.163,0 16,0 24.837,0 32,7.163 32,16 32,24.837 24.837,32 16,32 Z M 12.116,11.420949 16,7.5369492 l 3.886,3.8859998 2.26,-2.2599998 -6.146,-6.146 -6.144,6.144 z m -6.116,1.596 2.26,2.26 2.26,-2.26 -2.26,-2.26 z m 6.116,1.596 -2.263,2.257 0.003,0.003 6.144,6.144 6.146,-6.146 v -0.001 l -2.26,-2.26 -3.886,3.887 z m 9.364,-1.596 2.26,2.26 2.26,-2.26 -2.26,-2.26 z m -3.188,-0.002 h 10e-4 l -2.293,-2.292 -1.695,1.694 -0.195,0.195 -0.401,0.402 -0.004,0.003 0.004,0.003 2.29,2.291 2.294,-2.293 0.001,-10e-4 -0.002,-10e-4 z"
     id="path2"
     inkscape:connector-curvature="0"
     style="fill:#766054"
     sodipodi:nodetypes="sssssccccccccccccccccccccccccccccccccccccccc" />
  <text
     xml:space="preserve"
     style="font-style:normal;font-weight:normal;font-size:5.28655481px;line-height:1.25;font-family:sans-serif;letter-spacing:0px;word-spacing:0px;fill:#000000;fill-opacity:1;stroke:none;stroke-width:0.13216385"
     x="6.4245725"
     y="28.247747"
     id="text821"><tspan
       sodipodi:role="line"
       id="tspan819"
       x="6.4245725"
       y="28.247747"
       style="font-style:normal;font-variant:normal;font-weight:bold;font-stretch:normal;font-family:sans-serif;-inkscape-font-specification:'sans-serif Bold';stroke-width:0.13216385">ERC20</tspan></text>
</svg>
