<?xml version="1.0" encoding="UTF-8" standalone="no"?>
<svg
   xmlns:dc="http://purl.org/dc/elements/1.1/"
   xmlns:cc="http://creativecommons.org/ns#"
   xmlns:rdf="http://www.w3.org/1999/02/22-rdf-syntax-ns#"
   xmlns:svg="http://www.w3.org/2000/svg"
   xmlns="http://www.w3.org/2000/svg"
   xmlns:sodipodi="http://sodipodi.sourceforge.net/DTD/sodipodi-0.dtd"
   xmlns:inkscape="http://www.inkscape.org/namespaces/inkscape"
   width="32"
   height="32"
   version="1.1"
   id="svg4"
   sodipodi:docname="bnb.bep20.svg"
   inkscape:version="0.92.5 (2060ec1f9f, 2020-04-08)">
  <metadata
     id="metadata10">
    <rdf:RDF>
      <cc:Work
         rdf:about="">
        <dc:format>image/svg+xml</dc:format>
        <dc:type
           rdf:resource="http://purl.org/dc/dcmitype/StillImage" />
        <dc:title></dc:title>
      </cc:Work>
    </rdf:RDF>
  </metadata>
  <defs
     id="defs8" />
  <sodipodi:namedview
     pagecolor="#ffffff"
     bordercolor="#666666"
     borderopacity="1"
     objecttolerance="10"
     gridtolerance="10"
     guidetolerance="10"
     inkscape:pageopacity="0"
     inkscape:pageshadow="2"
     inkscape:window-width="2063"
     inkscape:window-height="844"
     id="namedview6"
     showgrid="false"
     inkscape:zoom="20.85965"
     inkscape:cx="13.282368"
     inkscape:cy="13.423659"
     inkscape:window-x="283"
     inkscape:window-y="160"
     inkscape:window-maximized="0"
     inkscape:current-layer="svg4" />
  <path
     style="fill:#766054"
     d="M 16 0 C 7.163 0 0 7.163 0 16 C 0 24.837 7.163 32 16 32 C 24.837 32 32 24.837 32 16 C 32 7.163 24.837 0 16 0 z M 16 3.0175781 L 22.146484 9.1621094 L 19.886719 11.423828 L 16 7.5371094 L 12.115234 11.421875 L 9.8554688 9.1601562 L 16 3.0175781 z M 16 10.722656 L 18.292969 13.015625 L 18.292969 13.017578 L 15.998047 15.310547 L 13.708984 13.019531 L 13.705078 13.017578 L 13.708984 13.013672 L 14.109375 12.611328 L 14.304688 12.416016 L 16 10.722656 z M 8.2597656 10.757812 L 10.519531 13.017578 L 8.2597656 15.277344 L 6 13.017578 L 8.2597656 10.757812 z M 23.740234 10.757812 L 26 13.017578 L 23.740234 15.277344 L 21.480469 13.017578 L 23.740234 10.757812 z M 19.886719 14.609375 L 22.146484 16.869141 L 22.146484 16.871094 L 16 23.017578 L 9.8554688 16.873047 L 9.8535156 16.869141 L 12.115234 14.613281 L 16 18.496094 L 19.886719 14.609375 z M 19.697266 24.324219 C 20.158463 24.324219 20.516794 24.425842 20.771484 24.628906 C 21.027896 24.83197 21.15625 25.115409 21.15625 25.478516 C 21.15625 25.688464 21.102556 25.883993 20.994141 26.066406 C 20.885725 26.247099 20.656212 26.490325 20.308594 26.794922 L 19.486328 27.517578 L 21.181641 27.517578 L 21.181641 28.248047 L 18.380859 28.248047 L 18.380859 27.517578 L 19.789062 26.275391 C 19.914687 26.161812 20.006176 26.051775 20.066406 25.943359 C 20.12664 25.834943 20.158203 25.720536 20.158203 25.603516 C 20.158203 25.422823 20.096792 25.278105 19.974609 25.167969 C 19.854147 25.057832 19.693531 25.003906 19.492188 25.003906 C 19.337308 25.003906 19.166557 25.036401 18.982422 25.103516 C 18.798287 25.168909 18.602525 25.26765 18.392578 25.398438 L 18.392578 24.550781 C 18.616293 24.476783 18.836136 24.420672 19.054688 24.382812 C 19.27324 24.343234 19.487318 24.324219 19.697266 24.324219 z M 23.482422 24.324219 C 23.988362 24.324219 24.378956 24.498085 24.654297 24.845703 C 24.929638 25.191601 25.066406 25.68405 25.066406 26.324219 C 25.066406 26.962667 24.929638 27.457069 24.654297 27.804688 C 24.378956 28.150585 23.988362 28.322266 23.482422 28.322266 C 22.974761 28.322266 22.581982 28.150586 22.306641 27.804688 C 22.031299 27.457069 21.894531 26.962667 21.894531 26.324219 C 21.894531 25.68405 22.031299 25.191601 22.306641 24.845703 C 22.581982 24.498085 22.974761 24.324219 23.482422 24.324219 z M 6.9335938 24.394531 L 8.4257812 24.394531 C 8.9609761 24.394531 9.3467346 24.474955 9.5859375 24.636719 C 9.8268612 24.798482 9.9472656 25.05784 9.9472656 25.414062 C 9.9472656 25.601639 9.9041714 25.762023 9.8164062 25.894531 C 9.7286412 26.025319 9.6005194 26.121874 9.4335938 26.185547 C 9.6469833 26.2475 9.8126674 26.362372 9.9296875 26.529297 C 10.046708 26.696222 10.105469 26.899933 10.105469 27.142578 C 10.105469 27.514289 9.9797648 27.792195 9.7285156 27.974609 C 9.4772666 28.157023 9.0948546 28.248047 8.5820312 28.248047 L 6.9335938 28.248047 L 6.9335938 24.394531 z M 10.962891 24.394531 L 13.644531 24.394531 L 13.644531 25.144531 L 11.957031 25.144531 L 11.957031 25.863281 L 13.542969 25.863281 L 13.542969 26.613281 L 11.957031 26.613281 L 11.957031 27.496094 L 13.701172 27.496094 L 13.701172 28.248047 L 10.962891 28.248047 L 10.962891 24.394531 z M 14.574219 24.394531 L 16.222656 24.394531 C 16.713108 24.394531 17.089989 24.50215 17.351562 24.720703 C 17.614859 24.937534 17.746094 25.247704 17.746094 25.650391 C 17.746094 26.054798 17.614859 26.367385 17.351562 26.585938 C 17.089989 26.802769 16.713108 26.910156 16.222656 26.910156 L 15.568359 26.910156 L 15.568359 28.248047 L 14.574219 28.248047 L 14.574219 24.394531 z M 23.482422 25.003906 C 23.269033 25.003906 23.116597 25.102879 23.025391 25.300781 C 22.934183 25.496962 22.888672 25.834559 22.888672 26.316406 C 22.888672 26.803416 22.934183 27.148034 23.025391 27.347656 C 23.116597 27.547279 23.269033 27.646484 23.482422 27.646484 C 23.694091 27.646484 23.84434 27.547279 23.935547 27.347656 C 24.026754 27.148034 24.072266 26.803416 24.072266 26.316406 C 24.072266 25.834559 24.026754 25.496962 23.935547 25.300781 C 23.846061 25.102879 23.695812 25.003906 23.482422 25.003906 z M 7.9277344 25.070312 L 7.9277344 25.886719 L 8.4765625 25.886719 C 8.6331629 25.886719 8.7511497 25.852039 8.8320312 25.783203 C 8.9129128 25.714368 8.9550781 25.612744 8.9550781 25.478516 C 8.9550781 25.346008 8.9129128 25.244617 8.8320312 25.175781 C 8.7511497 25.105225 8.6331629 25.070313 8.4765625 25.070312 L 7.9277344 25.070312 z M 15.568359 25.113281 L 15.568359 26.191406 L 16.117188 26.191406 C 16.309926 26.191406 16.459479 26.143709 16.564453 26.050781 C 16.669427 25.956133 16.720703 25.822479 16.720703 25.650391 C 16.720703 25.478302 16.669427 25.346834 16.564453 25.253906 C 16.459479 25.160978 16.309926 25.113281 16.117188 25.113281 L 15.568359 25.113281 z M 7.9277344 26.5625 L 7.9277344 27.572266 L 8.5097656 27.572266 C 8.7093882 27.572266 8.8591731 27.529636 8.9589844 27.445312 C 9.0605165 27.360989 9.1113281 27.232867 9.1113281 27.0625 C 9.1113281 26.895574 9.0627019 26.772055 8.9628906 26.689453 C 8.8630794 26.60513 8.711109 26.5625 8.5097656 26.5625 L 7.9277344 26.5625 z "
     id="path2" />
  <g
     aria-label="BEP20"
     style="font-style:normal;font-weight:normal;font-size:5.28655481px;line-height:1.25;font-family:sans-serif;letter-spacing:0px;word-spacing:0px;fill:#000000;fill-opacity:1;stroke:none;stroke-width:0.13216385"
     id="text821" />
</svg>
