<?xml version="1.0" encoding="UTF-8" standalone="no"?>
<svg
   xmlns:dc="http://purl.org/dc/elements/1.1/"
   xmlns:cc="http://creativecommons.org/ns#"
   xmlns:rdf="http://www.w3.org/1999/02/22-rdf-syntax-ns#"
   xmlns:svg="http://www.w3.org/2000/svg"
   xmlns="http://www.w3.org/2000/svg"
   xmlns:sodipodi="http://sodipodi.sourceforge.net/DTD/sodipodi-0.dtd"
   xmlns:inkscape="http://www.inkscape.org/namespaces/inkscape"
   width="32"
   height="32"
   version="1.1"
   id="svg4"
   sodipodi:docname="bnb.erc20.svg"
   inkscape:version="0.92.5 (2060ec1f9f, 2020-04-08)">
  <metadata
     id="metadata10">
    <rdf:RDF>
      <cc:Work
         rdf:about="">
        <dc:format>image/svg+xml</dc:format>
        <dc:type
           rdf:resource="http://purl.org/dc/dcmitype/StillImage" />
        <dc:title></dc:title>
      </cc:Work>
    </rdf:RDF>
  </metadata>
  <defs
     id="defs8" />
  <sodipodi:namedview
     pagecolor="#ffffff"
     bordercolor="#666666"
     borderopacity="1"
     objecttolerance="10"
     gridtolerance="10"
     guidetolerance="10"
     inkscape:pageopacity="0"
     inkscape:pageshadow="2"
     inkscape:window-width="2063"
     inkscape:window-height="844"
     id="namedview6"
     showgrid="false"
     inkscape:zoom="14.75"
     inkscape:cx="12.690251"
     inkscape:cy="13.67252"
     inkscape:window-x="283"
     inkscape:window-y="160"
     inkscape:window-maximized="0"
     inkscape:current-layer="svg4" />
  <path
     style="fill:#766054"
     d="M 16 0 C 7.163 0 0 7.163 0 16 C 0 24.837 7.163 32 16 32 C 24.837 32 32 24.837 32 16 C 32 7.163 24.837 0 16 0 z M 16 3.0175781 L 22.146484 9.1621094 L 19.886719 11.423828 L 16 7.5371094 L 12.115234 11.421875 L 9.8554688 9.1601562 L 16 3.0175781 z M 16 10.722656 L 18.292969 13.015625 L 18.292969 13.017578 L 15.998047 15.310547 L 13.708984 13.019531 L 13.705078 13.017578 L 13.708984 13.013672 L 14.109375 12.611328 L 14.304688 12.416016 L 16 10.722656 z M 8.2597656 10.757812 L 10.519531 13.017578 L 8.2597656 15.277344 L 6 13.017578 L 8.2597656 10.757812 z M 23.740234 10.757812 L 26 13.017578 L 23.740234 15.277344 L 21.480469 13.017578 L 23.740234 10.757812 z M 19.886719 14.609375 L 22.146484 16.869141 L 22.146484 16.871094 L 16 23.017578 L 9.8554688 16.873047 L 9.8535156 16.869141 L 12.115234 14.613281 L 16 18.496094 L 19.886719 14.609375 z M 16.458984 24.324219 C 16.674095 24.324219 16.880224 24.348298 17.078125 24.396484 C 17.276027 24.444671 17.466024 24.516681 17.648438 24.611328 L 17.648438 25.408203 C 17.464303 25.282579 17.282488 25.191323 17.103516 25.132812 C 16.924544 25.074306 16.736966 25.044922 16.539062 25.044922 C 16.18456 25.044922 15.904236 25.157609 15.701172 25.384766 C 15.498107 25.611922 15.396484 25.924973 15.396484 26.324219 C 15.396484 26.721743 15.498107 27.034562 15.701172 27.261719 C 15.904236 27.488875 16.18456 27.601562 16.539062 27.601562 C 16.736964 27.601562 16.924544 27.574138 17.103516 27.515625 C 17.282488 27.457112 17.464303 27.363903 17.648438 27.238281 L 17.648438 28.035156 C 17.466024 28.129805 17.276027 28.201815 17.078125 28.25 C 16.880224 28.298187 16.674095 28.322266 16.458984 28.322266 C 15.817095 28.322266 15.308746 28.1431 14.933594 27.785156 C 14.558441 27.425492 14.369141 26.938574 14.369141 26.324219 C 14.369141 25.708142 14.558441 25.221225 14.933594 24.863281 C 15.308746 24.503617 15.817095 24.324219 16.458984 24.324219 z M 19.720703 24.324219 C 20.1819 24.324219 20.540231 24.425842 20.794922 24.628906 C 21.051333 24.83197 21.179688 25.115409 21.179688 25.478516 C 21.179688 25.688464 21.125993 25.883993 21.017578 26.066406 C 20.909162 26.247099 20.679649 26.490325 20.332031 26.794922 L 19.509766 27.517578 L 21.205078 27.517578 L 21.205078 28.248047 L 18.404297 28.248047 L 18.404297 27.517578 L 19.810547 26.275391 C 19.936172 26.161812 20.029613 26.051775 20.089844 25.943359 C 20.150077 25.834943 20.179688 25.720536 20.179688 25.603516 C 20.179687 25.422823 20.12023 25.278105 19.998047 25.167969 C 19.877585 25.057832 19.715015 25.003906 19.513672 25.003906 C 19.358793 25.003906 19.189994 25.036401 19.005859 25.103516 C 18.821725 25.168909 18.62401 25.26765 18.414062 25.398438 L 18.414062 24.550781 C 18.637777 24.476783 18.859573 24.420672 19.078125 24.382812 C 19.296678 24.343234 19.510756 24.324219 19.720703 24.324219 z M 23.505859 24.324219 C 24.011799 24.324219 24.402393 24.498085 24.677734 24.845703 C 24.953076 25.191601 25.089844 25.68405 25.089844 26.324219 C 25.089844 26.962667 24.953076 27.457069 24.677734 27.804688 C 24.402393 28.150585 24.011799 28.322266 23.505859 28.322266 C 22.998199 28.322266 22.605419 28.150586 22.330078 27.804688 C 22.054737 27.457069 21.917969 26.962667 21.917969 26.324219 C 21.917969 25.68405 22.054737 25.191601 22.330078 24.845703 C 22.605419 24.498085 22.998199 24.324219 23.505859 24.324219 z M 6.9101562 24.394531 L 9.5917969 24.394531 L 9.5917969 25.144531 L 7.9042969 25.144531 L 7.9042969 25.863281 L 9.4902344 25.863281 L 9.4902344 26.613281 L 7.9042969 26.613281 L 7.9042969 27.496094 L 9.6484375 27.496094 L 9.6484375 28.248047 L 6.9101562 28.248047 L 6.9101562 24.394531 z M 10.521484 24.394531 L 12.039062 24.394531 C 12.546724 24.394531 12.918536 24.47807 13.154297 24.648438 C 13.391779 24.818805 13.509766 25.088763 13.509766 25.457031 C 13.509766 25.711723 13.448122 25.9205 13.324219 26.083984 C 13.202036 26.247468 13.017339 26.367873 12.769531 26.445312 C 12.905481 26.476287 13.026117 26.548064 13.132812 26.658203 C 13.241229 26.766618 13.3508 26.93035 13.460938 27.152344 L 14 28.248047 L 12.943359 28.248047 L 12.472656 27.291016 C 12.378008 27.098276 12.281684 26.965087 12.183594 26.894531 C 12.087224 26.823975 11.958638 26.789062 11.796875 26.789062 L 11.515625 26.789062 L 11.515625 28.248047 L 10.521484 28.248047 L 10.521484 24.394531 z M 23.505859 25.003906 C 23.29247 25.003906 23.140035 25.102879 23.048828 25.300781 C 22.957621 25.496962 22.912109 25.834559 22.912109 26.316406 C 22.912109 26.803416 22.957621 27.148034 23.048828 27.347656 C 23.140035 27.547279 23.29247 27.646484 23.505859 27.646484 C 23.717528 27.646484 23.867777 27.547279 23.958984 27.347656 C 24.050191 27.148034 24.095703 26.803416 24.095703 26.316406 C 24.095703 25.834559 24.050191 25.496962 23.958984 25.300781 C 23.869498 25.102879 23.719249 25.003906 23.505859 25.003906 z M 11.515625 25.113281 L 11.515625 26.103516 L 11.933594 26.103516 C 12.141821 26.103516 12.28942 26.063768 12.378906 25.986328 C 12.470113 25.908889 12.515625 25.780767 12.515625 25.603516 C 12.515625 25.427986 12.470113 25.304235 12.378906 25.228516 C 12.28942 25.152797 12.141821 25.113281 11.933594 25.113281 L 11.515625 25.113281 z "
     id="path2" />
  <g
     aria-label="ERC20"
     style="font-style:normal;font-weight:normal;font-size:5.28655481px;line-height:1.25;font-family:sans-serif;letter-spacing:0px;word-spacing:0px;fill:#000000;fill-opacity:1;stroke:none;stroke-width:0.13216385"
     id="text821" />
</svg>
