<?xml version="1.0" encoding="UTF-8" standalone="no"?>
<svg
   xmlns:dc="http://purl.org/dc/elements/1.1/"
   xmlns:cc="http://creativecommons.org/ns#"
   xmlns:rdf="http://www.w3.org/1999/02/22-rdf-syntax-ns#"
   xmlns:svg="http://www.w3.org/2000/svg"
   xmlns="http://www.w3.org/2000/svg"
   xmlns:sodipodi="http://sodipodi.sourceforge.net/DTD/sodipodi-0.dtd"
   xmlns:inkscape="http://www.inkscape.org/namespaces/inkscape"
   width="32"
   height="32"
   version="1.1"
   id="svg4"
   sodipodi:docname="cft.svg"
   inkscape:version="0.92.2 (5c3e80d, 2017-08-06)">
  <metadata
     id="metadata10">
    <rdf:RDF>
      <cc:Work
         rdf:about="">
        <dc:format>image/svg+xml</dc:format>
        <dc:type
           rdf:resource="http://purl.org/dc/dcmitype/StillImage" />
      </cc:Work>
    </rdf:RDF>
  </metadata>
  <defs
     id="defs8" />
  <sodipodi:namedview
     pagecolor="#ffffff"
     bordercolor="#666666"
     borderopacity="1"
     objecttolerance="10"
     gridtolerance="10"
     guidetolerance="10"
     inkscape:pageopacity="0"
     inkscape:pageshadow="2"
     inkscape:window-width="1610"
     inkscape:window-height="813"
     id="namedview6"
     showgrid="false"
     inkscape:zoom="14.75"
     inkscape:cx="6.4899268"
     inkscape:cy="14.693975"
     inkscape:window-x="2529"
     inkscape:window-y="72"
     inkscape:window-maximized="0"
     inkscape:current-layer="svg4" />
  <path
     style="fill:#766054;fill-rule:evenodd"
     d="M 8.4884555,1.8728383 C 0.68584716,6.0215588 -2.2758816,15.708937 1.8728385,23.511545 6.0215587,31.314152 15.708937,34.27588 23.511545,30.127162 31.314152,25.97844 34.27588,16.291063 30.127162,8.4884554 25.97844,0.68584729 16.291063,-2.2758816 8.4884555,1.8728383 Z M 16.06826,3.5196818 c 6.008053,0.2262511 9.711266,6.0447359 9.466062,12.9342432 -0.217875,6.119921 -5.631185,11.63447 -10.335916,11.598278 C 10.0167,28.011891 5.7690967,22.327885 5.8512927,15.462364 6.0259503,9.6580247 10.722521,3.7039612 16.06826,3.5196818 Z m 1.22306,2.293852 c 0.07379,6.4445372 -1.277298,6.0381762 -2.818966,8.0735372 -1.354225,2.021557 -4.276727,5.309774 -0.471954,11.620883 0.01325,-5.61824 1.450995,-6.396014 3.223039,-8.555744 1.61348,-1.752051 4.244617,-6.381984 0.06788,-11.1386762 z"
     id="path2"
     inkscape:connector-curvature="0"
     sodipodi:nodetypes="sssssccccccccccc" />
</svg>
