<?xml version="1.0" encoding="UTF-8" standalone="no"?>
<svg
   xmlns:dc="http://purl.org/dc/elements/1.1/"
   xmlns:cc="http://creativecommons.org/ns#"
   xmlns:rdf="http://www.w3.org/1999/02/22-rdf-syntax-ns#"
   xmlns:svg="http://www.w3.org/2000/svg"
   xmlns="http://www.w3.org/2000/svg"
   xmlns:sodipodi="http://sodipodi.sourceforge.net/DTD/sodipodi-0.dtd"
   xmlns:inkscape="http://www.inkscape.org/namespaces/inkscape"
   width="32px"
   height="32px"
   viewBox="0 0 32 32"
   version="1.1"
   id="svg14"
   sodipodi:docname="erc20.svg"
   inkscape:version="0.92.5 (2060ec1f9f, 2020-04-08)">
  <metadata
     id="metadata18">
    <rdf:RDF>
      <cc:Work
         rdf:about="">
        <dc:format>image/svg+xml</dc:format>
        <dc:type
           rdf:resource="http://purl.org/dc/dcmitype/StillImage" />
      </cc:Work>
    </rdf:RDF>
  </metadata>
  <sodipodi:namedview
     pagecolor="#ffffff"
     bordercolor="#666666"
     borderopacity="1"
     objecttolerance="10"
     gridtolerance="10"
     guidetolerance="10"
     inkscape:pageopacity="0"
     inkscape:pageshadow="2"
     inkscape:window-width="1910"
     inkscape:window-height="815"
     id="namedview16"
     showgrid="false"
     inkscape:zoom="16.954788"
     inkscape:cx="7.262669"
     inkscape:cy="16.734083"
     inkscape:window-x="273"
     inkscape:window-y="116"
     inkscape:window-maximized="0"
     inkscape:current-layer="svg14" />
  <title
     id="title2">black</title>
  <defs
     id="defs4" />
  <g
     id="Page-1"
     stroke="none"
     stroke-width="1"
     fill="none"
     fill-rule="evenodd">
    <g
       id="black"
       fill-rule="nonzero">
      <g
         id="nano">
        <path
           style="fill:#766054"
           d="M 16 0 C 7.163444 0 0 7.163444 0 16 C 0 24.836556 7.163444 32 16 32 C 24.836556 32 32 24.836556 32 16 C 32 7.163444 24.836556 0 16 0 z M 15.117188 9.6113281 C 15.38845 9.6113281 15.648865 9.642361 15.898438 9.703125 C 16.148004 9.763889 16.389106 9.8532988 16.619141 9.9726562 L 16.619141 10.978516 C 16.386936 10.820096 16.157335 10.704644 15.931641 10.630859 C 15.705946 10.557075 15.468316 10.519531 15.21875 10.519531 C 14.771701 10.519531 14.420139 10.662761 14.164062 10.949219 C 13.907986 11.235677 13.779297 11.631294 13.779297 12.134766 C 13.779297 12.636068 13.907987 13.029948 14.164062 13.316406 C 14.420141 13.602864 14.771701 13.746094 15.21875 13.746094 C 15.468316 13.746094 15.705946 13.70855 15.931641 13.634766 C 16.157335 13.560981 16.386936 13.445529 16.619141 13.287109 L 16.619141 14.292969 C 16.389106 14.412327 16.148004 14.501736 15.898438 14.5625 C 15.648872 14.62326 15.388456 14.654297 15.117188 14.654297 C 14.307726 14.654297 13.66645 14.427951 13.193359 13.976562 C 12.720269 13.52301 12.484375 12.909506 12.484375 12.134766 C 12.484375 11.357856 12.720269 10.744358 13.193359 10.292969 C 13.66645 9.8394078 14.307721 9.6113281 15.117188 9.6113281 z M 22.152344 9.6113281 C 22.733941 9.6113281 23.184679 9.740017 23.505859 9.9960938 C 23.82921 10.25217 23.992186 10.608507 23.992188 11.066406 C 23.992188 11.331163 23.923828 11.578559 23.787109 11.808594 C 23.650391 12.036458 23.362196 12.342448 22.923828 12.726562 L 21.884766 13.638672 L 24.023438 13.638672 L 24.023438 14.560547 L 20.492188 14.560547 L 20.492188 13.638672 L 22.265625 12.072266 C 22.424045 11.929037 22.541233 11.789063 22.617188 11.652344 C 22.693143 11.515625 22.732422 11.374133 22.732422 11.226562 C 22.732422 10.998698 22.65408 10.81467 22.5 10.675781 C 22.34809 10.536893 22.146484 10.46875 21.892578 10.46875 C 21.697265 10.46875 21.482205 10.511068 21.25 10.595703 C 21.017795 10.678168 20.770617 10.801866 20.505859 10.966797 L 20.505859 9.8984375 C 20.787977 9.8051215 21.066189 9.735243 21.341797 9.6875 C 21.617404 9.6375867 21.887586 9.6113281 22.152344 9.6113281 z M 26.923828 9.6113281 C 27.561849 9.6113281 28.055121 9.8311645 28.402344 10.269531 C 28.749566 10.705729 28.923828 11.327474 28.923828 12.134766 C 28.923828 12.939888 28.749566 13.561632 28.402344 14 C 28.055121 14.436197 27.561849 14.654297 26.923828 14.654297 C 26.283637 14.654297 25.790582 14.436197 25.443359 14 C 25.096137 13.561632 24.921875 12.939888 24.921875 12.134766 C 24.921875 11.327474 25.096137 10.705729 25.443359 10.269531 C 25.790582 9.8311645 26.283637 9.6113281 26.923828 9.6113281 z M 3.0761719 9.6992188 L 6.4589844 9.6992188 L 6.4589844 10.646484 L 4.3300781 10.646484 L 4.3300781 11.552734 L 6.3320312 11.552734 L 6.3320312 12.5 L 4.3300781 12.5 L 4.3300781 13.613281 L 6.53125 13.613281 L 6.53125 14.560547 L 3.0761719 14.560547 L 3.0761719 9.6992188 z M 7.6308594 9.6992188 L 9.5449219 9.6992188 C 10.185113 9.6992188 10.653863 9.8066447 10.951172 10.021484 C 11.250651 10.236328 11.400391 10.576606 11.400391 11.041016 C 11.400391 11.362196 11.322266 11.625868 11.166016 11.832031 C 11.011936 12.038195 10.779297 12.189453 10.466797 12.287109 C 10.638238 12.326169 10.791233 12.415796 10.925781 12.554688 C 11.0625 12.691406 11.199002 12.899736 11.337891 13.179688 L 12.019531 14.560547 L 10.683594 14.560547 L 10.091797 13.351562 C 9.9724385 13.108507 9.8502604 12.942492 9.7265625 12.853516 C 9.6050347 12.76454 9.4422746 12.720703 9.2382812 12.720703 L 8.8847656 12.720703 L 8.8847656 14.560547 L 7.6308594 14.560547 L 7.6308594 9.6992188 z M 26.923828 10.46875 C 26.654731 10.46875 26.462674 10.592231 26.347656 10.841797 C 26.232639 11.089192 26.175781 11.517361 26.175781 12.125 C 26.175781 12.739149 26.232639 13.172092 26.347656 13.423828 C 26.462674 13.675564 26.654731 13.800781 26.923828 13.800781 C 27.190755 13.800781 27.38303 13.675564 27.498047 13.423828 C 27.613064 13.172092 27.669922 12.739149 27.669922 12.125 C 27.669922 11.517361 27.613064 11.089192 27.498047 10.841797 C 27.3852 10.592231 27.192925 10.46875 26.923828 10.46875 z M 8.8847656 10.607422 L 8.8847656 11.855469 L 9.4121094 11.855469 C 9.6746962 11.855469 9.8617622 11.80664 9.9746094 11.708984 C 10.089627 11.611328 10.146484 11.450094 10.146484 11.226562 C 10.146484 11.005211 10.089627 10.847439 9.9746094 10.751953 C 9.8617622 10.656467 9.6746962 10.607422 9.4121094 10.607422 L 8.8847656 10.607422 z M 17.558594 12.167969 L 19.603516 12.167969 L 19.603516 13.115234 L 17.558594 13.115234 L 17.558594 12.167969 z M 11.591797 18.658203 C 12.27322 18.658203 12.816623 18.887804 13.224609 19.345703 C 13.632595 19.801432 13.835934 20.413411 13.835938 21.181641 C 13.835938 21.9477 13.632595 22.559679 13.224609 23.017578 C 12.816623 23.473307 12.27322 23.701172 11.591797 23.701172 C 10.908203 23.701172 10.361328 23.473307 9.9511719 23.017578 C 9.5431857 22.561849 9.3378906 21.94987 9.3378906 21.181641 C 9.3378906 20.413411 9.5431857 19.801432 9.9511719 19.345703 C 10.361328 18.887804 10.908203 18.658203 11.591797 18.658203 z M 4.8730469 18.746094 L 8.984375 18.746094 L 8.984375 19.300781 L 7.2578125 19.300781 L 7.2578125 23.607422 L 6.5976562 23.607422 L 6.5976562 19.300781 L 4.8730469 19.300781 L 4.8730469 18.746094 z M 14.865234 18.746094 L 15.523438 18.746094 L 15.523438 20.800781 L 17.705078 18.746094 L 18.550781 18.746094 L 16.138672 21.011719 L 18.722656 23.607422 L 17.857422 23.607422 L 15.523438 21.265625 L 15.523438 23.607422 L 14.865234 23.607422 L 14.865234 18.746094 z M 19.238281 18.746094 L 22.310547 18.746094 L 22.310547 19.300781 L 19.894531 19.300781 L 19.894531 20.738281 L 22.208984 20.738281 L 22.208984 21.292969 L 19.894531 21.292969 L 19.894531 23.052734 L 22.369141 23.052734 L 22.369141 23.607422 L 19.238281 23.607422 L 19.238281 18.746094 z M 23.449219 18.746094 L 24.333984 18.746094 L 26.490234 22.8125 L 26.490234 18.746094 L 27.126953 18.746094 L 27.126953 23.607422 L 26.242188 23.607422 L 24.087891 19.541016 L 24.087891 23.607422 L 23.449219 23.607422 L 23.449219 18.746094 z M 11.591797 19.193359 C 11.114366 19.193359 10.73329 19.37066 10.451172 19.726562 C 10.171224 20.082465 10.03125 20.567491 10.03125 21.181641 C 10.03125 21.79362 10.171224 22.27691 10.451172 22.632812 C 10.73329 22.988715 11.114366 23.167969 11.591797 23.167969 C 12.069228 23.167969 12.446832 22.988715 12.724609 22.632812 C 13.004557 22.27691 13.144531 21.79362 13.144531 21.181641 C 13.144531 20.567491 13.004557 20.082465 12.724609 19.726562 C 12.446832 19.37066 12.069228 19.193359 11.591797 19.193359 z "
           id="Oval" />
        <g
           aria-label="ERC20"
           style="font-size:8px;font-family:Verdana;text-anchor:middle;fill:#ffffff"
           id="text7" />
        <g
           aria-label="TEST"
           style="font-size:8px;font-family:Verdana;text-anchor:middle;fill:#ffffff"
           id="text9" />
      </g>
    </g>
  </g>
  <g
     aria-label="TOKEN"
     style="font-style:normal;font-weight:normal;font-size:8px;line-height:1.25;font-family:sans-serif;letter-spacing:0px;word-spacing:0px;fill:#000000;fill-opacity:1;stroke:none"
     id="text820" />
  <g
     aria-label="ERC-20"
     style="font-style:normal;font-weight:normal;font-size:8px;line-height:1.25;font-family:sans-serif;letter-spacing:0px;word-spacing:0px;fill:#000000;fill-opacity:1;stroke:none"
     id="text820-3" />
</svg>
