<?xml version="1.0" encoding="UTF-8" standalone="no"?>
<svg
   xmlns:dc="http://purl.org/dc/elements/1.1/"
   xmlns:cc="http://creativecommons.org/ns#"
   xmlns:rdf="http://www.w3.org/1999/02/22-rdf-syntax-ns#"
   xmlns:svg="http://www.w3.org/2000/svg"
   xmlns="http://www.w3.org/2000/svg"
   xmlns:sodipodi="http://sodipodi.sourceforge.net/DTD/sodipodi-0.dtd"
   xmlns:inkscape="http://www.inkscape.org/namespaces/inkscape"
   width="32px"
   height="32px"
   viewBox="0 0 32 32"
   version="1.1"
   id="svg14"
   sodipodi:docname="erc20.tst.svg"
   inkscape:version="0.92.5 (2060ec1f9f, 2020-04-08)">
  <metadata
     id="metadata18">
    <rdf:RDF>
      <cc:Work
         rdf:about="">
        <dc:format>image/svg+xml</dc:format>
        <dc:type
           rdf:resource="http://purl.org/dc/dcmitype/StillImage" />
      </cc:Work>
    </rdf:RDF>
  </metadata>
  <sodipodi:namedview
     pagecolor="#ffffff"
     bordercolor="#666666"
     borderopacity="1"
     objecttolerance="10"
     gridtolerance="10"
     guidetolerance="10"
     inkscape:pageopacity="0"
     inkscape:pageshadow="2"
     inkscape:window-width="1910"
     inkscape:window-height="815"
     id="namedview16"
     showgrid="false"
     inkscape:zoom="8.4773938"
     inkscape:cx="13.166378"
     inkscape:cy="20.565464"
     inkscape:window-x="72"
     inkscape:window-y="27"
     inkscape:window-maximized="0"
     inkscape:current-layer="svg14" />
  <title
     id="title2">black</title>
  <defs
     id="defs4" />
  <g
     id="Page-1"
     stroke="none"
     stroke-width="1"
     fill="none"
     fill-rule="evenodd">
    <g
       id="black"
       fill-rule="nonzero">
      <g
         id="nano">
        <path
           style="fill:#766054"
           d="M 16 0 A 16 16 0 0 0 0 16 A 16 16 0 0 0 16 32 A 16 16 0 0 0 32 16 A 16 16 0 0 0 16 0 z M 16.521484 9.0625 C 16.870443 9.0625 17.198568 9.109375 17.505859 9.203125 C 17.815755 9.2942709 18.10612 9.4322917 18.376953 9.6171875 L 18.376953 10.449219 C 18.111328 10.201823 17.827474 10.016927 17.525391 9.8945312 C 17.225911 9.7721355 16.906901 9.7109375 16.568359 9.7109375 C 15.901693 9.7109375 15.391276 9.915363 15.037109 10.324219 C 14.682943 10.730469 14.505859 11.31901 14.505859 12.089844 C 14.505859 12.858073 14.682943 13.446615 15.037109 13.855469 C 15.391276 14.261719 15.901693 14.464844 16.568359 14.464844 C 16.906901 14.464844 17.225911 14.403646 17.525391 14.28125 C 17.827474 14.158854 18.111328 13.973959 18.376953 13.726562 L 18.376953 14.550781 C 18.100912 14.738281 17.807943 14.878906 17.498047 14.972656 C 17.190755 15.066406 16.865234 15.113281 16.521484 15.113281 C 15.638672 15.113281 14.94336 14.84375 14.435547 14.304688 C 13.927734 13.763018 13.673828 13.02474 13.673828 12.089844 C 13.673828 11.152344 13.927734 10.414063 14.435547 9.875 C 14.94336 9.3333333 15.638672 9.0625 16.521484 9.0625 z M 21.083984 9.0625 C 21.688151 9.0625 22.169922 9.2135417 22.529297 9.515625 C 22.888672 9.8177083 23.068359 10.221356 23.068359 10.726562 C 23.068359 10.966147 23.022786 11.194011 22.931641 11.410156 C 22.843099 11.623698 22.680339 11.876302 22.443359 12.167969 C 22.378253 12.243489 22.171221 12.462239 21.822266 12.824219 C 21.473307 13.183593 20.98112 13.687497 20.345703 14.335938 L 23.099609 14.335938 L 23.099609 15 L 19.396484 15 L 19.396484 14.335938 C 19.695964 14.026039 20.103515 13.610677 20.619141 13.089844 C 21.137369 12.566406 21.46289 12.229167 21.595703 12.078125 C 21.848307 11.794271 22.024088 11.554688 22.123047 11.359375 C 22.22461 11.161458 22.275391 10.967448 22.275391 10.777344 C 22.275391 10.467448 22.166016 10.214844 21.947266 10.019531 C 21.73112 9.8242203 21.448568 9.7265625 21.099609 9.7265625 C 20.852214 9.7265625 20.590495 9.7695311 20.314453 9.8554688 C 20.041016 9.941406 19.748047 10.071614 19.435547 10.246094 L 19.435547 9.4492188 C 19.753255 9.3216145 20.05013 9.2252605 20.326172 9.1601562 C 20.602213 9.0950527 20.854818 9.0625 21.083984 9.0625 z M 26.443359 9.0625 C 27.097005 9.0625 27.595703 9.3216145 27.939453 9.8398438 C 28.285807 10.355469 28.458984 11.105468 28.458984 12.089844 C 28.458984 13.071614 28.285807 13.821614 27.939453 14.339844 C 27.595703 14.855468 27.097005 15.113281 26.443359 15.113281 C 25.789714 15.113281 25.289714 14.855468 24.943359 14.339844 C 24.599609 13.821614 24.427734 13.071614 24.427734 12.089844 C 24.427734 11.105468 24.599609 10.355469 24.943359 9.8398438 C 25.289714 9.3216145 25.789714 9.0625 26.443359 9.0625 z M 3.7949219 9.1679688 L 7.4824219 9.1679688 L 7.4824219 9.8320312 L 4.5839844 9.8320312 L 4.5839844 11.558594 L 7.3613281 11.558594 L 7.3613281 12.222656 L 4.5839844 12.222656 L 4.5839844 14.335938 L 7.5527344 14.335938 L 7.5527344 15 L 3.7949219 15 L 3.7949219 9.1679688 z M 8.8496094 9.1679688 L 10.630859 9.1679688 C 11.297526 9.1679688 11.794922 9.3072917 12.123047 9.5859375 C 12.451172 9.8645832 12.615234 10.285156 12.615234 10.847656 C 12.615234 11.214844 12.529297 11.519531 12.357422 11.761719 C 12.188151 12.003906 11.940756 12.171875 11.615234 12.265625 C 11.784506 12.322918 11.948568 12.445316 12.107422 12.632812 C 12.26888 12.820312 12.430338 13.078125 12.591797 13.40625 L 13.392578 15 L 12.544922 15 L 11.798828 13.503906 C 11.60612 13.113282 11.41862 12.854166 11.236328 12.726562 C 11.056641 12.598961 10.810547 12.535156 10.498047 12.535156 L 9.6386719 12.535156 L 9.6386719 15 L 8.8496094 15 L 8.8496094 9.1679688 z M 26.443359 9.6875 C 26.037109 9.6875 25.731119 9.8880245 25.525391 10.289062 C 25.322265 10.687501 25.220703 11.28776 25.220703 12.089844 C 25.220703 12.889323 25.322265 13.489584 25.525391 13.890625 C 25.731119 14.289062 26.037109 14.488281 26.443359 14.488281 C 26.852214 14.488281 27.158203 14.289062 27.361328 13.890625 C 27.567057 13.489584 27.669922 12.889323 27.669922 12.089844 C 27.669922 11.28776 27.567057 10.687503 27.361328 10.289062 C 27.158203 9.8880245 26.852214 9.6875 26.443359 9.6875 z M 9.6386719 9.8164062 L 9.6386719 11.886719 L 10.630859 11.886719 C 11.011068 11.886719 11.297526 11.799479 11.490234 11.625 C 11.685547 11.447917 11.783203 11.188802 11.783203 10.847656 C 11.783203 10.506511 11.685547 10.25 11.490234 10.078125 C 11.297526 9.9036459 11.011068 9.8164064 10.630859 9.8164062 L 9.6386719 9.8164062 z M 18.5625 18.0625 C 18.835937 18.0625 19.114583 18.087239 19.398438 18.136719 C 19.682292 18.186199 19.972657 18.260418 20.269531 18.359375 L 20.269531 19.128906 C 19.970052 18.985677 19.6875 18.878906 19.421875 18.808594 C 19.15625 18.738281 18.899739 18.703125 18.652344 18.703125 C 18.222656 18.703125 17.890625 18.786458 17.65625 18.953125 C 17.424479 19.119792 17.308594 19.356771 17.308594 19.664062 C 17.308594 19.921875 17.385417 20.117187 17.539062 20.25 C 17.695312 20.380208 17.989583 20.485677 18.421875 20.566406 L 18.898438 20.664062 C 19.486979 20.776042 19.920573 20.973958 20.199219 21.257812 C 20.480469 21.539062 20.621094 21.916666 20.621094 22.390625 C 20.621094 22.955729 20.43099 23.384115 20.050781 23.675781 C 19.673177 23.967448 19.118489 24.113281 18.386719 24.113281 C 18.110677 24.113281 17.816406 24.082031 17.503906 24.019531 C 17.19401 23.957031 16.872396 23.864583 16.539062 23.742188 L 16.539062 22.929688 C 16.859375 23.109375 17.173177 23.244792 17.480469 23.335938 C 17.78776 23.427083 18.089843 23.472656 18.386719 23.472656 C 18.837239 23.472656 19.184895 23.384115 19.429688 23.207031 C 19.67448 23.029948 19.796875 22.777343 19.796875 22.449219 C 19.796875 22.16276 19.708333 21.938802 19.53125 21.777344 C 19.356771 21.615885 19.06901 21.494792 18.667969 21.414062 L 18.1875 21.320312 C 17.598958 21.203125 17.173177 21.019531 16.910156 20.769531 C 16.647136 20.519531 16.515625 20.171875 16.515625 19.726562 C 16.515625 19.210938 16.696614 18.804688 17.058594 18.507812 C 17.423177 18.210938 17.924479 18.0625 18.5625 18.0625 z M 6.0234375 18.167969 L 10.957031 18.167969 L 10.957031 18.832031 L 8.8867188 18.832031 L 8.8867188 24 L 8.09375 24 L 8.09375 18.832031 L 6.0234375 18.832031 L 6.0234375 18.167969 z M 11.71875 18.167969 L 15.40625 18.167969 L 15.40625 18.832031 L 12.507812 18.832031 L 12.507812 20.558594 L 15.285156 20.558594 L 15.285156 21.222656 L 12.507812 21.222656 L 12.507812 23.335938 L 15.476562 23.335938 L 15.476562 24 L 11.71875 24 L 11.71875 18.167969 z M 21.042969 18.167969 L 25.976562 18.167969 L 25.976562 18.832031 L 23.90625 18.832031 L 23.90625 24 L 23.113281 24 L 23.113281 18.832031 L 21.042969 18.832031 L 21.042969 18.167969 z "
           id="Oval" />
        <g
           aria-label="ERC20"
           style="font-size:8px;font-family:Verdana;text-anchor:middle;fill:#ffffff"
           id="text7" />
        <g
           aria-label="TEST"
           style="font-size:8px;font-family:Verdana;text-anchor:middle;fill:#ffffff"
           id="text9" />
      </g>
    </g>
  </g>
</svg>
