<?xml version="1.0" encoding="UTF-8" standalone="no"?>
<svg
   xmlns:dc="http://purl.org/dc/elements/1.1/"
   xmlns:cc="http://creativecommons.org/ns#"
   xmlns:rdf="http://www.w3.org/1999/02/22-rdf-syntax-ns#"
   xmlns:svg="http://www.w3.org/2000/svg"
   xmlns="http://www.w3.org/2000/svg"
   xmlns:sodipodi="http://sodipodi.sourceforge.net/DTD/sodipodi-0.dtd"
   xmlns:inkscape="http://www.inkscape.org/namespaces/inkscape"
   width="38"
   height="38"
   viewBox="0 0 38 38"
   fill="none"
   version="1.1"
   id="svg8"
   sodipodi:docname="fiat.svg"
   inkscape:version="0.92.5 (2060ec1f9f, 2020-04-08)">
  <metadata
     id="metadata14">
    <rdf:RDF>
      <cc:Work
         rdf:about="">
        <dc:format>image/svg+xml</dc:format>
        <dc:type
           rdf:resource="http://purl.org/dc/dcmitype/StillImage" />
        <dc:title />
      </cc:Work>
    </rdf:RDF>
  </metadata>
  <defs
     id="defs12" />
  <sodipodi:namedview
     pagecolor="#ffffff"
     bordercolor="#666666"
     borderopacity="1"
     objecttolerance="10"
     gridtolerance="10"
     guidetolerance="10"
     inkscape:pageopacity="0"
     inkscape:pageshadow="2"
     inkscape:window-width="1853"
     inkscape:window-height="1014"
     id="namedview10"
     showgrid="false"
     inkscape:zoom="17.566022"
     inkscape:cx="9.6575875"
     inkscape:cy="18.794737"
     inkscape:window-x="407"
     inkscape:window-y="29"
     inkscape:window-maximized="0"
     inkscape:current-layer="svg8" />
  <path
     style="fill:#766054"
     d="M 19 0 C 8.474 0 0 8.474 0 19 C 0 29.526 8.474 38 19 38 C 29.526 38 38 29.526 38 19 C 38 8.474 29.526 0 19 0 z M 24.767578 9.0039062 C 27.098821 8.9621255 29.904217 9.2000335 33.615234 9.9746094 L 34 10.054688 L 34 28.357422 L 33.398438 28.207031 C 26.238398 26.406971 22.652045 27.130278 18.970703 27.951172 C 15.289361 28.772066 11.50468 29.69925 4.3847656 28.210938 L 4 28.130859 L 4 10.447266 L 4 9.8769531 L 4.5625 9.9707031 C 11.673019 11.145854 15.131059 10.389166 18.763672 9.7070312 C 20.579978 9.3659641 22.436336 9.0456874 24.767578 9.0039062 z M 24.794922 9.9628906 C 22.541684 10.003094 20.749488 10.31868 18.941406 10.658203 C 15.430891 11.31741 11.785895 12.03755 4.9667969 10.988281 L 4.9667969 27.320312 C 11.659333 28.654087 15.139469 27.815096 18.759766 27.007812 C 22.342823 26.208835 26.162566 25.528424 33.033203 27.154297 L 33.033203 10.857422 C 29.59445 10.164747 26.958539 9.9242866 24.794922 9.9628906 z M 23.054688 13.5 L 24.5 14.960938 L 22.53125 16.923828 C 22.715059 17.27153 22.852671 17.619096 22.941406 17.966797 C 23.030141 18.314498 23.074219 18.65862 23.074219 19 C 23.074219 19.398276 23.026714 19.764552 22.931641 20.099609 C 22.842905 20.428345 22.703819 20.741936 22.513672 21.039062 L 24.480469 23.001953 L 23.017578 24.453125 L 21.048828 22.5 C 20.75727 22.689655 20.443348 22.830953 20.107422 22.925781 C 19.771495 23.014287 19.403215 23.058594 19.003906 23.058594 C 18.636289 23.058594 18.281717 23.017731 17.939453 22.935547 C 17.597188 22.847041 17.257801 22.714121 16.921875 22.537109 L 14.955078 24.5 L 13.5 23.039062 L 15.46875 21.076172 C 15.29128 20.766402 15.157095 20.444432 15.068359 20.109375 C 14.979625 19.767996 14.935547 19.398276 14.935547 19 C 14.935547 18.601724 14.983052 18.232004 15.078125 17.890625 C 15.173199 17.549245 15.315713 17.232211 15.505859 16.941406 L 13.519531 14.998047 L 14.974609 13.537109 L 16.941406 15.5 C 17.245641 15.310345 17.569845 15.17249 17.912109 15.083984 C 18.254374 14.989157 18.617275 14.941406 19.003906 14.941406 C 19.346171 14.941406 19.688986 14.985713 20.03125 15.074219 C 20.373515 15.156403 20.724659 15.285879 21.085938 15.462891 L 23.054688 13.5 z M 19.003906 16.923828 C 18.427127 16.923828 17.936896 17.124699 17.53125 17.529297 C 17.125603 17.927573 16.921875 18.418391 16.921875 19 C 16.921875 19.587931 17.122176 20.08024 17.521484 20.478516 C 17.920792 20.876791 18.414451 21.076172 19.003906 21.076172 C 19.580685 21.076172 20.072869 20.876791 20.478516 20.478516 C 20.884163 20.073918 21.085938 19.581609 21.085938 19 C 21.085938 18.418391 20.884163 17.927573 20.478516 17.529297 C 20.079208 17.124699 19.587024 16.923828 19.003906 16.923828 z "
     id="rect2" />
  <g
     aria-label="¤"
     transform="scale(1.0012956,0.99870607)"
     style="font-style:normal;font-weight:normal;font-size:19.44585037px;line-height:1.25;font-family:sans-serif;letter-spacing:0px;word-spacing:0px;fill:#ffffff;fill-opacity:1;stroke:none;stroke-width:0.48614627"
     id="text814" />
</svg>
