<?xml version="1.0" encoding="UTF-8" standalone="no"?>
<svg
   xmlns:dc="http://purl.org/dc/elements/1.1/"
   xmlns:cc="http://creativecommons.org/ns#"
   xmlns:rdf="http://www.w3.org/1999/02/22-rdf-syntax-ns#"
   xmlns:svg="http://www.w3.org/2000/svg"
   xmlns="http://www.w3.org/2000/svg"
   xmlns:sodipodi="http://sodipodi.sourceforge.net/DTD/sodipodi-0.dtd"
   xmlns:inkscape="http://www.inkscape.org/namespaces/inkscape"
   width="38"
   height="38"
   viewBox="0 0 38 38"
   fill="none"
   version="1.1"
   id="svg8"
   sodipodi:docname="fiat_usd.svg"
   inkscape:version="0.92.5 (2060ec1f9f, 2020-04-08)">
  <metadata
     id="metadata14">
    <rdf:RDF>
      <cc:Work
         rdf:about="">
        <dc:format>image/svg+xml</dc:format>
        <dc:type
           rdf:resource="http://purl.org/dc/dcmitype/StillImage" />
        <dc:title />
      </cc:Work>
    </rdf:RDF>
  </metadata>
  <defs
     id="defs12" />
  <sodipodi:namedview
     pagecolor="#ffffff"
     bordercolor="#666666"
     borderopacity="1"
     objecttolerance="10"
     gridtolerance="10"
     guidetolerance="10"
     inkscape:pageopacity="0"
     inkscape:pageshadow="2"
     inkscape:window-width="1853"
     inkscape:window-height="1014"
     id="namedview10"
     showgrid="false"
     inkscape:zoom="12.421053"
     inkscape:cx="2.2208985"
     inkscape:cy="12.774764"
     inkscape:window-x="438"
     inkscape:window-y="164"
     inkscape:window-maximized="0"
     inkscape:current-layer="svg8" />
  <path
     style="fill:#766054"
     d="M 19 0 C 8.474 0 0 8.474 0 19 C 0 29.526 8.474 38 19 38 C 29.526 38 38 29.526 38 19 C 38 8.474 29.526 0 19 0 z M 24.767578 9.0039062 C 27.098821 8.9621255 29.904217 9.2000335 33.615234 9.9746094 L 34 10.054688 L 34 28.357422 L 33.398438 28.207031 C 26.238398 26.406971 22.652045 27.130278 18.970703 27.951172 C 15.289361 28.772066 11.50468 29.69925 4.3847656 28.210938 L 4 28.130859 L 4 10.447266 L 4 9.8769531 L 4.5625 9.9707031 C 11.673019 11.145854 15.131059 10.389166 18.763672 9.7070312 C 20.579978 9.3659641 22.436336 9.0456874 24.767578 9.0039062 z M 24.794922 9.9628906 C 22.541684 10.003094 20.749488 10.31868 18.941406 10.658203 C 15.430891 11.31741 11.785895 12.03755 4.9667969 10.988281 L 4.9667969 27.320312 C 11.659333 28.654087 15.139469 27.815096 18.759766 27.007812 C 22.342823 26.208835 26.162566 25.528424 33.033203 27.154297 L 33.033203 10.857422 C 29.59445 10.164747 26.958539 9.9242866 24.794922 9.9628906 z M 18.28125 11.921875 L 19.576172 11.921875 L 19.576172 13.652344 C 20.109031 13.692995 20.640968 13.757359 21.173828 13.84375 C 21.706688 13.930139 22.243062 14.042483 22.78125 14.179688 L 22.78125 16.115234 C 22.24839 15.901804 21.7145 15.736019 21.181641 15.619141 C 20.648781 15.497181 20.11436 15.423846 19.576172 15.398438 L 19.576172 17.585938 L 19.832031 17.630859 C 21.185495 17.834127 22.132265 18.174667 22.675781 18.652344 C 23.224627 19.124939 23.5 19.827866 23.5 20.757812 C 23.5 21.69284 23.17548 22.410977 22.525391 22.914062 C 21.875302 23.412066 20.892335 23.696434 19.576172 23.767578 L 19.576172 26.078125 L 18.28125 26.078125 L 18.273438 23.783203 C 17.607363 23.757793 16.961336 23.68719 16.337891 23.570312 C 15.714445 23.453434 15.107099 23.29038 14.515625 23.082031 L 14.515625 21.083984 C 15.128413 21.383803 15.747648 21.616683 16.371094 21.779297 C 16.999868 21.936828 17.63649 22.024595 18.28125 22.044922 L 18.28125 19.673828 L 18.017578 19.628906 C 16.744043 19.415476 15.837016 19.080398 15.298828 18.623047 C 14.765969 18.165697 14.5 17.507241 14.5 16.648438 C 14.5 15.738818 14.824521 15.029652 15.474609 14.521484 C 16.130027 14.008235 17.063847 13.729329 18.273438 13.683594 L 18.28125 11.921875 z M 18.28125 15.421875 C 17.90292 15.4422 17.59827 15.540891 17.369141 15.71875 C 17.14534 15.891527 17.033203 16.111531 17.033203 16.380859 C 17.033203 16.680678 17.137888 16.917067 17.345703 17.089844 C 17.553518 17.257539 17.865619 17.364421 18.28125 17.410156 L 18.28125 15.421875 z M 19.576172 19.896484 L 19.576172 22.015625 C 20.03976 22.010547 20.386105 21.923558 20.615234 21.755859 C 20.849692 21.588164 20.966797 21.33539 20.966797 21 C 20.966797 20.654446 20.859628 20.398164 20.646484 20.230469 C 20.43334 20.057692 20.07706 19.947301 19.576172 19.896484 z "
     id="rect2" />
  <g
     aria-label="$"
     transform="scale(1.0240073,0.97655553)"
     style="font-style:normal;font-weight:normal;font-size:15.98567581px;line-height:1.25;font-family:sans-serif;letter-spacing:0px;word-spacing:0px;fill:#ffffff;fill-opacity:1;stroke:none;stroke-width:0.39964187"
     id="text814" />
</svg>
