<?xml version="1.0" encoding="UTF-8" standalone="no"?>
<svg
   xmlns:dc="http://purl.org/dc/elements/1.1/"
   xmlns:cc="http://creativecommons.org/ns#"
   xmlns:rdf="http://www.w3.org/1999/02/22-rdf-syntax-ns#"
   xmlns:svg="http://www.w3.org/2000/svg"
   xmlns="http://www.w3.org/2000/svg"
   xmlns:sodipodi="http://sodipodi.sourceforge.net/DTD/sodipodi-0.dtd"
   xmlns:inkscape="http://www.inkscape.org/namespaces/inkscape"
   width="38"
   height="38"
   viewBox="0 0 38 38"
   fill="none"
   version="1.1"
   id="svg8"
   sodipodi:docname="fiat_eur.svg"
   inkscape:version="0.92.5 (2060ec1f9f, 2020-04-08)">
  <metadata
     id="metadata14">
    <rdf:RDF>
      <cc:Work
         rdf:about="">
        <dc:format>image/svg+xml</dc:format>
        <dc:type
           rdf:resource="http://purl.org/dc/dcmitype/StillImage" />
        <dc:title />
      </cc:Work>
    </rdf:RDF>
  </metadata>
  <defs
     id="defs12" />
  <sodipodi:namedview
     pagecolor="#ffffff"
     bordercolor="#666666"
     borderopacity="1"
     objecttolerance="10"
     gridtolerance="10"
     guidetolerance="10"
     inkscape:pageopacity="0"
     inkscape:pageshadow="2"
     inkscape:window-width="2488"
     inkscape:window-height="1016"
     id="namedview10"
     showgrid="false"
     inkscape:zoom="24.842106"
     inkscape:cx="8.1700186"
     inkscape:cy="18.414479"
     inkscape:window-x="72"
     inkscape:window-y="27"
     inkscape:window-maximized="1"
     inkscape:current-layer="svg8" />
  <path
     style="fill:#766054"
     d="M 19 0 C 8.474 0 0 8.474 0 19 C 0 29.526 8.474 38 19 38 C 29.526 38 38 29.526 38 19 C 38 8.474 29.526 0 19 0 z M 24.767578 9.0039062 C 27.098821 8.9621255 29.904217 9.2000335 33.615234 9.9746094 L 34 10.054688 L 34 28.357422 L 33.398438 28.207031 C 26.238398 26.406971 22.652045 27.130278 18.970703 27.951172 C 15.289361 28.772066 11.50468 29.69925 4.3847656 28.210938 L 4 28.130859 L 4 10.447266 L 4 9.8769531 L 4.5625 9.9707031 C 11.673019 11.145854 15.131059 10.389166 18.763672 9.7070312 C 20.579978 9.3659641 22.436336 9.0456874 24.767578 9.0039062 z M 24.794922 9.9628906 C 22.541684 10.003094 20.749488 10.31868 18.941406 10.658203 C 15.430891 11.31741 11.785895 12.03755 4.9667969 10.988281 L 4.9667969 27.320312 C 11.659333 28.654087 15.139469 27.815096 18.759766 27.007812 C 22.342823 26.208835 26.162566 25.528424 33.033203 27.154297 L 33.033203 10.857422 C 29.59445 10.164747 26.958539 9.9242866 24.794922 9.9628906 z M 20.994141 12.931641 C 21.590944 12.931641 22.164046 13.006102 22.712891 13.152344 C 23.267065 13.298585 23.796517 13.515473 24.302734 13.802734 L 24.302734 16.222656 C 23.871118 15.815268 23.410153 15.510334 22.919922 15.306641 C 22.429692 15.097724 21.922063 14.992188 21.394531 14.992188 C 20.7178 14.992188 20.13973 15.154695 19.660156 15.478516 C 19.185911 15.797114 18.827677 16.264555 18.587891 16.880859 L 22.896484 16.880859 L 22.208984 18.408203 L 18.269531 18.408203 C 18.258872 18.49177 18.249467 18.581769 18.244141 18.675781 L 18.244141 19.097656 L 18.244141 19.324219 C 18.24946 19.402562 18.254426 19.487382 18.259766 19.576172 L 21.689453 19.576172 L 20.978516 21.103516 L 18.587891 21.103516 C 18.854321 21.740711 19.220006 22.218512 19.683594 22.537109 C 20.15251 22.855708 20.723128 23.015625 21.394531 23.015625 C 21.922063 23.015625 22.424723 22.912679 22.904297 22.708984 C 23.389199 22.500068 23.855132 22.189954 24.302734 21.777344 L 24.302734 24.197266 C 23.796517 24.484526 23.267065 24.701415 22.712891 24.847656 C 22.164046 24.993898 21.590944 25.068359 20.994141 25.068359 C 19.598049 25.068359 18.420085 24.727807 17.460938 24.048828 C 16.507119 23.364626 15.831285 22.38313 15.431641 21.103516 L 13.697266 21.103516 L 14.400391 19.576172 L 15.183594 19.576172 C 15.178274 19.503051 15.173309 19.426 15.167969 19.347656 L 15.167969 19.003906 L 15.167969 18.652344 C 15.173288 18.568777 15.178254 18.486547 15.183594 18.408203 L 13.697266 18.408203 L 14.400391 16.880859 L 15.431641 16.880859 C 15.841942 15.596022 16.520259 14.617115 17.46875 13.943359 C 18.422568 13.269603 19.598049 12.931641 20.994141 12.931641 z "
     id="rect2" />
  <g
     aria-label="€"
     transform="scale(1.0100663,0.99003403)"
     style="font-style:normal;font-weight:normal;font-size:16.20631027px;line-height:1.25;font-family:sans-serif;letter-spacing:0px;word-spacing:0px;fill:#ffffff;fill-opacity:1;stroke:none;stroke-width:0.40515774"
     id="text814" />
</svg>
