<?xml version="1.0" encoding="UTF-8" standalone="no"?>
<svg
   xmlns:dc="http://purl.org/dc/elements/1.1/"
   xmlns:cc="http://creativecommons.org/ns#"
   xmlns:rdf="http://www.w3.org/1999/02/22-rdf-syntax-ns#"
   xmlns:svg="http://www.w3.org/2000/svg"
   xmlns="http://www.w3.org/2000/svg"
   xmlns:sodipodi="http://sodipodi.sourceforge.net/DTD/sodipodi-0.dtd"
   xmlns:inkscape="http://www.inkscape.org/namespaces/inkscape"
   width="38"
   height="38"
   viewBox="0 0 38 38"
   fill="none"
   version="1.1"
   id="svg8"
   sodipodi:docname="fiat_gbp.svg"
   inkscape:version="0.92.5 (2060ec1f9f, 2020-04-08)">
  <metadata
     id="metadata14">
    <rdf:RDF>
      <cc:Work
         rdf:about="">
        <dc:format>image/svg+xml</dc:format>
        <dc:type
           rdf:resource="http://purl.org/dc/dcmitype/StillImage" />
        <dc:title />
      </cc:Work>
    </rdf:RDF>
  </metadata>
  <defs
     id="defs12" />
  <sodipodi:namedview
     pagecolor="#ffffff"
     bordercolor="#666666"
     borderopacity="1"
     objecttolerance="10"
     gridtolerance="10"
     guidetolerance="10"
     inkscape:pageopacity="0"
     inkscape:pageshadow="2"
     inkscape:window-width="1853"
     inkscape:window-height="1014"
     id="namedview10"
     showgrid="false"
     inkscape:zoom="17.566022"
     inkscape:cx="16.919543"
     inkscape:cy="18.526552"
     inkscape:window-x="407"
     inkscape:window-y="29"
     inkscape:window-maximized="0"
     inkscape:current-layer="svg8" />
  <path
     style="fill:#766054"
     d="M 19 0 C 8.474 0 0 8.474 0 19 C 0 29.526 8.474 38 19 38 C 29.526 38 38 29.526 38 19 C 38 8.474 29.526 0 19 0 z M 24.767578 9.0039062 C 27.098821 8.9621255 29.904217 9.2000335 33.615234 9.9746094 L 34 10.054688 L 34 28.357422 L 33.398438 28.207031 C 26.238398 26.406971 22.652045 27.130278 18.970703 27.951172 C 15.289361 28.772066 11.50468 29.69925 4.3847656 28.210938 L 4 28.130859 L 4 10.447266 L 4 9.8769531 L 4.5625 9.9707031 C 11.673019 11.145854 15.131059 10.389166 18.763672 9.7070312 C 20.579978 9.3659641 22.436336 9.0456874 24.767578 9.0039062 z M 24.794922 9.9628906 C 22.541684 10.003094 20.749488 10.31868 18.941406 10.658203 C 15.430891 11.31741 11.785895 12.03755 4.9667969 10.988281 L 4.9667969 27.320312 C 11.659333 28.654087 15.139469 27.815096 18.759766 27.007812 C 22.342823 26.208835 26.162566 25.528424 33.033203 27.154297 L 33.033203 10.857422 C 29.59445 10.164747 26.958539 9.9242866 24.794922 9.9628906 z M 20.527344 12.589844 C 21.017575 12.589844 21.500895 12.626098 21.980469 12.699219 C 22.465371 12.767117 22.945677 12.872653 23.419922 13.013672 L 23.419922 15.253906 C 23.04692 15.050212 22.663848 14.898063 22.269531 14.798828 C 21.875216 14.699592 21.472802 14.650391 21.0625 14.650391 C 20.433726 14.650391 19.967793 14.815487 19.664062 15.144531 C 19.365661 15.468352 19.214844 15.972048 19.214844 16.65625 L 19.214844 17.988281 L 22.197266 17.988281 L 22.197266 19.861328 L 19.214844 19.861328 L 19.214844 22.414062 L 23.515625 22.414062 L 23.515625 24.498047 L 14.484375 24.498047 L 14.484375 22.414062 L 16.298828 22.414062 L 16.298828 19.861328 L 14.748047 19.861328 L 14.748047 17.988281 L 16.298828 17.988281 L 16.298828 16.65625 C 16.298828 15.24084 16.637721 14.210142 17.314453 13.5625 C 17.991185 12.914859 19.061979 12.589844 20.527344 12.589844 z "
     id="rect2" />
  <g
     aria-label="£"
     transform="scale(1.0100663,0.99003403)"
     style="font-style:normal;font-weight:normal;font-size:16.20631027px;line-height:1.25;font-family:sans-serif;letter-spacing:0px;word-spacing:0px;fill:#ffffff;fill-opacity:1;stroke:none;stroke-width:0.40515774"
     id="text814" />
</svg>
