<?xml version="1.0" encoding="UTF-8" standalone="no"?>
<svg
   xmlns:dc="http://purl.org/dc/elements/1.1/"
   xmlns:cc="http://creativecommons.org/ns#"
   xmlns:rdf="http://www.w3.org/1999/02/22-rdf-syntax-ns#"
   xmlns:svg="http://www.w3.org/2000/svg"
   xmlns="http://www.w3.org/2000/svg"
   xmlns:sodipodi="http://sodipodi.sourceforge.net/DTD/sodipodi-0.dtd"
   xmlns:inkscape="http://www.inkscape.org/namespaces/inkscape"
   width="38"
   height="38"
   viewBox="0 0 38 38"
   fill="none"
   version="1.1"
   id="svg8"
   sodipodi:docname="fiat_mxn.svg"
   inkscape:version="0.92.5 (2060ec1f9f, 2020-04-08)">
  <metadata
     id="metadata14">
    <rdf:RDF>
      <cc:Work
         rdf:about="">
        <dc:format>image/svg+xml</dc:format>
        <dc:type
           rdf:resource="http://purl.org/dc/dcmitype/StillImage" />
        <dc:title />
      </cc:Work>
    </rdf:RDF>
  </metadata>
  <defs
     id="defs12" />
  <sodipodi:namedview
     pagecolor="#ffffff"
     bordercolor="#666666"
     borderopacity="1"
     objecttolerance="10"
     gridtolerance="10"
     guidetolerance="10"
     inkscape:pageopacity="0"
     inkscape:pageshadow="2"
     inkscape:window-width="1853"
     inkscape:window-height="1014"
     id="namedview10"
     showgrid="false"
     inkscape:zoom="24.842106"
     inkscape:cx="15.757736"
     inkscape:cy="17.923362"
     inkscape:window-x="407"
     inkscape:window-y="29"
     inkscape:window-maximized="0"
     inkscape:current-layer="svg8" />
  <path
     style="fill:#766054"
     d="M 19 0 C 8.474 0 0 8.474 0 19 C 0 29.526 8.474 38 19 38 C 29.526 38 38 29.526 38 19 C 38 8.474 29.526 0 19 0 z M 24.767578 9.0039062 C 27.098821 8.9621255 29.904217 9.2000335 33.615234 9.9746094 L 34 10.054688 L 34 28.357422 L 33.398438 28.207031 C 26.238398 26.406971 22.652045 27.130278 18.970703 27.951172 C 15.289361 28.772066 11.50468 29.69925 4.3847656 28.210938 L 4 28.130859 L 4 10.447266 L 4 9.8769531 L 4.5625 9.9707031 C 11.673019 11.145854 15.131059 10.389166 18.763672 9.7070312 C 20.579978 9.3659641 22.436336 9.0456874 24.767578 9.0039062 z M 24.794922 9.9628906 C 22.541684 10.003094 20.749488 10.31868 18.941406 10.658203 C 15.430891 11.31741 11.785895 12.03755 4.9667969 10.988281 L 4.9667969 27.320312 C 11.659333 28.654087 15.139469 27.815096 18.759766 27.007812 C 22.342823 26.208835 26.162566 25.528424 33.033203 27.154297 L 33.033203 10.857422 C 29.59445 10.164747 26.958539 9.9242866 24.794922 9.9628906 z M 14.869141 14 L 19.15625 14 C 20.430475 14 21.408657 14.281124 22.091797 14.84375 C 22.547223 15.223299 22.849806 15.710805 23 16.304688 L 23.923828 16.304688 L 23.923828 16.994141 L 23.101562 16.994141 C 23.106424 17.083446 23.109375 17.172413 23.109375 17.261719 C 23.109375 17.351024 23.106424 17.439991 23.101562 17.529297 L 23.923828 17.529297 L 23.923828 18.21875 L 23 18.21875 C 22.849806 18.817098 22.547223 19.304604 22.091797 19.679688 C 21.408657 20.246778 20.430475 20.53125 19.15625 20.53125 L 17.449219 20.53125 L 17.449219 24 L 14.869141 24 L 14.869141 18.21875 L 14.076172 18.21875 L 14.076172 17.529297 L 14.869141 17.529297 L 14.869141 16.994141 L 14.076172 16.994141 L 14.076172 16.304688 L 14.869141 16.304688 L 14.869141 14 z M 17.449219 15.869141 L 17.449219 16.304688 L 20.115234 16.304688 C 20.091013 16.277897 20.067197 16.252799 20.042969 16.230469 C 19.766806 15.989344 19.37989 15.869141 18.880859 15.869141 L 17.449219 15.869141 z M 17.449219 16.994141 L 17.449219 17.529297 L 20.427734 17.529297 C 20.442269 17.444456 20.449219 17.355489 20.449219 17.261719 C 20.449219 17.167947 20.442269 17.078981 20.427734 16.994141 L 17.449219 16.994141 z M 17.449219 18.21875 L 17.449219 18.662109 L 18.880859 18.662109 C 19.37989 18.662109 19.766806 18.538559 20.042969 18.292969 C 20.067191 18.270645 20.093971 18.245541 20.123047 18.21875 L 17.449219 18.21875 z "
     id="rect2" />
  <g
     aria-label="₱"
     transform="scale(1.0416473,0.96001785)"
     style="font-style:normal;font-weight:normal;font-size:14.28863716px;line-height:1.25;font-family:sans-serif;letter-spacing:0px;word-spacing:0px;fill:#ffffff;fill-opacity:1;stroke:none;stroke-width:0.35721594"
     id="text814" />
</svg>
