<?xml version="1.0" encoding="UTF-8" standalone="no"?>
<svg
   xmlns:dc="http://purl.org/dc/elements/1.1/"
   xmlns:cc="http://creativecommons.org/ns#"
   xmlns:rdf="http://www.w3.org/1999/02/22-rdf-syntax-ns#"
   xmlns:svg="http://www.w3.org/2000/svg"
   xmlns="http://www.w3.org/2000/svg"
   xmlns:sodipodi="http://sodipodi.sourceforge.net/DTD/sodipodi-0.dtd"
   xmlns:inkscape="http://www.inkscape.org/namespaces/inkscape"
   id="svg"
   version="1.1"
   width="400"
   height="400"
   viewBox="0, 0, 400,400"
   sodipodi:docname="frecnx.svg"
   inkscape:version="0.92.3 (2405546, 2018-03-11)">
  <metadata
     id="metadata13">
    <rdf:RDF>
      <cc:Work
         rdf:about="">
        <dc:format>image/svg+xml</dc:format>
        <dc:type
           rdf:resource="http://purl.org/dc/dcmitype/StillImage" />
      </cc:Work>
    </rdf:RDF>
  </metadata>
  <defs
     id="defs11" />
  <sodipodi:namedview
     pagecolor="#ffffff"
     bordercolor="#666666"
     borderopacity="1"
     objecttolerance="10"
     gridtolerance="10"
     guidetolerance="10"
     inkscape:pageopacity="0"
     inkscape:pageshadow="2"
     inkscape:window-width="1400"
     inkscape:window-height="676"
     id="namedview9"
     showgrid="false"
     inkscape:zoom="1"
     inkscape:cx="60.513402"
     inkscape:cy="166.52589"
     inkscape:window-x="2675"
     inkscape:window-y="156"
     inkscape:window-maximized="0"
     inkscape:current-layer="svgg" />
  <g
     id="svgg">
    <path
       style="fill:#766054;fill-opacity:1;stroke-width:1.17266417"
       d="m 189.16154,0.00100046 c -0.43577,0.00785177 -0.92327,0.06224835 -1.47007,0.1488441 -0.52401,0.0831364 -5.02623,0.58628452 -10.00435,1.11858814 -14.115,1.5080011 -16.17383,1.8241641 -19.76214,3.0400333 -1.84714,0.625832 -5.01399,1.354827 -7.04096,1.6192468 -2.13059,0.2794306 -4.89015,1.0310317 -6.54319,1.7838776 -1.57203,0.7158964 -4.57273,1.6629801 -6.66878,2.106374 -2.09606,0.4433936 -4.36297,1.1866406 -5.03823,1.6508186 -0.67527,0.465333 -2.64822,1.189872 -4.38462,1.612482 -1.73638,0.423764 -3.86542,1.274379 -4.72885,1.892128 -0.86343,0.618904 -2.67695,1.435509 -4.03106,1.817705 -1.35528,0.383351 -3.39272,1.306331 -4.52649,2.052249 -1.13497,0.744763 -2.35035,1.357532 -2.70287,1.362152 -4.15995,0.05427 -4.0667,5.562666 0.18376,10.991932 0.85152,1.086546 1.68361,2.68371 1.85153,3.549714 0.38705,1.99989 4.80893,6.084451 5.7593,5.320058 0.33109,-0.265575 1.90719,-0.979216 3.50305,-1.585418 1.59585,-0.606202 3.52697,-1.53584 4.29155,-2.063525 0.76459,-0.527684 2.67762,-1.347646 4.25204,-1.822216 1.57442,-0.475724 3.48068,-1.290182 4.23573,-1.810939 0.75507,-0.520757 2.75741,-1.295813 4.44973,-1.720732 1.69233,-0.42492 4.25548,-1.251483 5.69652,-1.835747 1.44222,-0.583109 4.22922,-1.382269 6.19426,-1.774857 1.96506,-0.393743 5.01105,-1.24331 6.76649,-1.887617 1.75663,-0.644307 5.18701,-1.390802 7.62247,-1.659841 2.43667,-0.269038 6.99984,-1.003536 10.14392,-1.630523 3.14408,-0.626987 7.59203,-1.323127 9.8834,-1.544824 5.86537,-0.565789 5.59999,-0.112361 5.5988,-9.462895 0,-9.1152664 -0.48059,-11.3222272 -3.53094,-11.26706854 z m 20.97168,0.53674102 c -0.39868,0.0171122 -0.69006,0.05375 -0.87227,0.10599886 -1.32908,0.38219626 -1.79447,3.18656926 -1.79804,10.83857766 -0.004,8.962562 -0.40293,8.480938 7.60852,9.194525 3.27031,0.290977 7.66628,0.921246 9.7671,1.402744 2.102,0.481499 6.42218,1.202844 9.5996,1.601206 6.08928,0.763237 7.36595,1.044147 10.37188,2.295811 1.02302,0.426074 3.48899,1.077256 5.47785,1.445596 1.99007,0.369495 4.47516,1.071084 5.52438,1.558355 1.04802,0.486117 3.48112,1.302776 5.40806,1.81545 1.92575,0.512674 4.39286,1.426904 5.48018,2.031952 1.08614,0.603893 3.09531,1.446966 4.4637,1.869576 1.36838,0.423764 3.26557,1.282083 4.21713,1.907914 0.95156,0.625833 3.19697,1.595973 4.99171,2.155989 l 3.26344,1.019358 1.91901,-2.045483 c 1.05636,-1.125805 2.44929,-3.105598 3.09597,-4.397675 0.64787,-1.293232 1.52411,-2.628393 1.9469,-2.967867 3.88127,-3.123386 2.3558,-8.472421 -2.83312,-9.934235 -1.37554,-0.38797 -3.21398,-1.215635 -4.08456,-1.838003 -0.87057,-0.622368 -2.6943,-1.44453 -4.05197,-1.826726 -1.35648,-0.383351 -2.98349,-1.078338 -3.6147,-1.544824 -1.31003,-0.96877 -3.07404,-1.666787 -6.14309,-2.42887 -1.17664,-0.292132 -2.67818,-0.899399 -3.33558,-1.350876 -0.65739,-0.451477 -2.9096,-1.179371 -5.00565,-1.6169918 -2.09606,-0.4376206 -4.96672,-1.3145937 -6.38036,-1.9485084 -1.41245,-0.63276 -4.73425,-1.5316349 -7.38289,-1.9981223 -2.64745,-0.4664873 -6.00217,-1.2634451 -7.45035,-1.770346 C 238.8667,3.6042098 235.86601,2.9672826 233.64728,2.6982441 220.97258,1.1564688 212.92401,0.417957 210.13322,0.53774495 Z M 93.681749,30.856893 c -0.172686,0.01039 -0.969757,0.375467 -1.77245,0.809624 -0.803884,0.434156 -2.218326,1.358182 -3.142495,2.056758 -0.924168,0.698577 -1.910086,1.271943 -2.191148,1.271943 -0.279871,0 -1.117696,0.633626 -1.860842,1.407256 -0.743142,0.774784 -2.15299,1.852346 -3.135514,2.395042 -0.982524,0.542695 -1.786408,1.126905 -1.786408,1.30126 0,0.173201 -0.902248,0.893392 -2.005057,1.601205 -4.657761,2.988291 -18.540553,15.638005 -24.909693,22.696512 -1.048026,1.1616 -2.454581,2.660144 -3.123889,3.328699 -0.670497,0.66971 -2.555251,2.982667 -4.189219,5.141903 -1.633968,2.159236 -3.613735,4.654227 -4.398564,5.543324 -3.088104,3.500965 -4.162554,4.931603 -5.201053,6.92803 -0.594278,1.143125 -1.683094,2.746837 -2.419094,3.565499 -1.111146,1.234344 -1.294681,1.780307 -1.086267,3.23173 0.396584,2.750428 0.439774,2.801626 3.658881,4.217253 1.678033,0.737835 3.201057,1.573102 3.382079,1.858306 0.182214,0.285203 1.388524,0.959335 2.684265,1.499722 1.294551,0.540381 2.35629,1.160861 2.35629,1.377941 0,0.68241 3.819788,2.32166 4.745147,2.03646 1.019443,-0.31292 5.256878,-5.144596 5.256878,-5.992125 0,-0.312916 0.452315,-0.964035 1.002529,-1.447843 0.551404,-0.482652 1.562231,-1.812315 2.244639,-2.956594 0.682408,-1.143125 2.696063,-3.691832 4.475325,-5.662856 1.780454,-1.96987 3.235539,-3.741309 3.235539,-3.937604 0,-0.196294 1.660894,-2.024751 3.691444,-4.063901 2.030551,-2.03915 4.875275,-4.943022 6.319884,-6.452178 1.444609,-1.510311 4.413637,-4.305667 6.599009,-6.210875 2.184186,-1.905208 4.783482,-4.191908 5.777916,-5.081005 0.994433,-0.889097 2.92442,-2.447904 4.289237,-3.464015 1.363625,-1.016111 3.177198,-2.412629 4.028719,-3.105432 0.851521,-0.691648 2.429896,-1.742908 3.507695,-2.33641 1.763778,-0.972233 4.372978,-3.912695 4.372978,-4.927651 0,-0.792105 -2.78393,-6.386796 -3.34486,-6.722805 C 100.42805,40.5747 99.641134,39.26034 98.994454,37.843558 97.8976,35.437223 94.38083,30.813016 93.681749,30.856893 Z m 215.957661,1.889873 c -0.31741,-0.02229 -1.02096,0.211268 -2.52378,0.771284 -1.77688,0.660472 -2.22485,1.122052 -3.31694,3.427931 -0.69431,1.466433 -1.44161,2.667923 -1.66313,2.667923 -0.2227,0 -0.9667,1.193732 -1.65151,2.654392 -0.68598,1.460659 -1.68317,3.232107 -2.21671,3.937611 l -0.96764,1.280964 2.57261,2.180795 c 1.41484,1.199705 3.44092,2.745413 4.50324,3.432443 1.0635,0.688185 3.11337,2.189928 4.5544,3.339981 1.44105,1.151207 3.15507,2.448008 3.81008,2.882164 1.13378,0.751691 2.01497,1.509837 6.4548,5.552343 1.06112,0.96646 3.20481,2.914391 4.76375,4.330018 4.11946,3.737672 10.30028,10.706058 10.69519,11.06411 0.8153,0.739186 1.27687,1.704226 4.16828,4.729188 0.72052,0.66971 2.38141,2.687799 3.69146,4.485623 10.18609,13.979604 10.59544,14.340504 13.85861,12.193964 1.01349,-0.6674 2.68682,-1.50271 3.71937,-1.856039 1.77092,-0.606203 6.24535,-3.2171 7.98532,-4.659285 0.93608,-0.775939 -0.63802,-4.742652 -2.89128,-7.295631 -0.68003,-0.769011 -1.6648,-2.224798 -2.18881,-3.233981 -0.52402,-1.009183 -1.22159,-2.002374 -1.55148,-2.205596 -0.3287,-0.204377 -1.02178,-1.176668 -1.53984,-2.162758 -0.51925,-0.98609 -1.33444,-2.066955 -1.81201,-2.401809 -0.81817,-0.572717 -2.21263,-2.332218 -5.61275,-7.081382 -1.38268,-1.930611 -3.01623,-3.759634 -3.85346,-3.768871 -2.43993,-2.684127 -1.85535,-1.71635 -3.76669,-3.492928 -0.81461,-1.786277 -10.20437,-11.241905 -15.8125,-15.924098 -4.17425,-3.484799 -6.42718,-5.241218 -9.44145,-7.354267 -1.76021,-1.234344 -3.97292,-2.886372 -4.91495,-3.669239 -0.94322,-0.784022 -2.4096,-1.815523 -3.26112,-2.293557 -0.85152,-0.47688 -1.54915,-1.032746 -1.54915,-1.23135 0,-0.182726 -0.0514,-0.286574 -0.24191,-0.299943 z m -0.72574,2.289047 c -0.12266,0.02309 -0.92882,0.239034 -1.79106,0.48036 -0.13824,0.03855 -0.25173,0.09441 -0.37681,0.142079 0.56961,-0.251333 1.28248,-0.456291 2.16787,-0.622439 z m -108.12188,0.03383 c -1.17902,0.03695 -5.14531,0.22444 -8.81341,0.414961 -3.66808,0.191675 -8.59764,0.762733 -10.9557,1.271943 -2.35805,0.50921 -6.96653,1.272214 -10.24161,1.693669 -3.27508,0.421455 -7.4562,1.262272 -9.29024,1.86732 -1.83406,0.605048 -4.91274,1.416259 -6.84325,1.801919 -1.93052,0.385661 -4.25624,1.126654 -5.1685,1.648565 -0.91106,0.520757 -3.17462,1.356125 -5.02892,1.853789 -1.85429,0.498818 -4.13817,1.405344 -5.07544,2.016165 -0.93607,0.611976 -2.46926,1.242301 -3.40535,1.400491 -0.93727,0.157035 -2.73376,0.919984 -3.99615,1.695924 -1.26121,0.775939 -3.45688,1.831543 -4.88006,2.347681 -1.42317,0.516139 -2.69515,1.212281 -2.82615,1.544826 -0.1322,0.332546 -1.26171,1.030833 -2.50981,1.55159 -2.15441,0.898335 -4.76031,2.418853 -9.57171,5.588426 -3.72287,2.451368 -5.103,3.424133 -7.89694,5.559121 -1.49701,1.143125 -3.75263,2.8148 -5.01264,3.716599 -6.594228,4.715679 -18.045537,15.922748 -24.04906,23.533189 -1.502963,1.905208 -3.270168,4.029619 -3.926375,4.722422 -0.656207,0.692803 -1.641038,1.964407 -2.186488,2.825797 -0.546642,0.86138 -1.590164,2.37419 -2.321401,3.36028 -2.586719,3.48826 -4.497523,6.4457 -4.840514,7.49183 -0.19055,0.58195 -0.933362,1.71983 -1.651498,2.5281 -0.716945,0.80942 -1.681456,2.40659 -2.139967,3.54971 -0.459703,1.14312 -1.218294,2.49364 -1.688714,3.0017 -1.169503,1.26321 -1.928297,2.76711 -1.928297,3.8271 0,0.48611 -0.644446,1.79827 -1.432848,2.91599 -0.78721,1.11773 -1.779877,3.17644 -2.207424,4.57359 -0.427547,1.39715 -1.376167,3.57858 -2.107403,4.84872 -0.730046,1.27014 -1.477452,3.14251 -1.658475,4.15862 -0.181023,1.01611 -0.93178,3.19979 -1.66778,4.85097 -0.736,1.65233 -1.597495,4.45639 -1.916667,6.23343 -0.31798,1.77819 -1.180666,4.9188 -1.916666,6.97989 -0.803884,2.25277 -1.635215,6.07668 -2.081817,9.58919 -0.408492,3.21345 -1.216915,8.07516 -1.795712,10.8025 -1.588712,7.47765 -1.60131,31.6603 -0.02094,38.90702 0.581179,2.66729 1.389602,7.5169 1.795712,10.77769 0.407301,3.26079 1.190808,7.10404 1.742213,8.54276 0.551405,1.43872 1.497755,4.83809 2.102752,7.55273 0.603805,2.71463 1.425794,5.41781 1.82595,6.01016 0.400155,0.59119 1.076274,2.42295 1.502631,4.07066 0.426355,1.64772 1.370433,4.03639 2.098097,5.30653 0.726473,1.27014 1.670552,3.45157 2.0981,4.84872 0.427546,1.39715 1.420214,3.45586 2.207424,4.57358 0.788402,1.11773 1.432847,2.49674 1.432847,3.06484 0,0.56925 0.738326,2.0732 1.639867,3.34449 0.90154,1.27014 1.96879,3.0789 2.374899,4.0188 0.40492,0.9399 1.23707,2.28716 1.849211,2.99267 0.612143,0.7055 1.407002,1.98475 1.765475,2.84383 0.358472,0.85907 0.936283,1.73061 1.281654,1.93498 0.346564,0.20554 1.145907,1.36201 1.777103,2.57095 0.632389,1.20779 1.483668,2.46734 1.895734,2.79873 0.412064,0.33139 1.419486,1.7367 2.237661,3.12346 0.818175,1.38677 1.774685,2.62767 2.126013,2.75815 0.351325,0.13047 1.161964,1.10171 1.802689,2.15824 0.639534,1.05652 2.462192,3.27196 4.047331,4.92314 1.58514,1.65118 3.803468,3.97739 4.928905,5.1667 1.126628,1.19047 3.219468,3.26888 4.649786,4.61869 1.429125,1.35097 3.398677,3.21448 4.377628,4.14283 2.720473,2.28271 2.089252,1.04324 6.196598,5.41478 1.137346,1.2124 2.866066,2.70215 3.842636,3.31066 0.97776,0.60967 1.87774,1.35947 2.00041,1.66661 0.22747,0.57618 4.05571,3.18862 7.71784,5.26819 1.14568,0.65008 2.51155,1.62681 3.03318,2.16951 0.52163,0.54386 1.86144,1.41753 2.97735,1.94175 1.11591,0.52423 2.67048,1.38144 3.45651,1.90566 2.9035,1.93639 7.21443,4.22738 9.58798,5.09454 1.34219,0.49074 2.91834,1.29203 3.5007,1.78161 0.58118,0.48958 2.16301,1.23834 3.51235,1.66211 1.35052,0.42376 3.52583,1.35114 4.83586,2.06126 1.31003,0.71128 3.77482,1.62881 5.47786,2.03872 1.70304,0.40991 3.89196,1.16301 4.86376,1.67337 0.97182,0.50921 3.37774,1.22615 5.34993,1.59218 1.971,0.36603 4.85757,1.1849 6.41293,1.81997 1.80427,0.73553 4.95857,1.41778 8.70408,1.8831 3.23101,0.40298 8.01697,1.18679 10.63703,1.74103 7.18256,1.52071 29.05369,1.50739 36.44227,-0.0225 2.75106,-0.56925 7.35954,-1.33336 10.24161,-1.69593 2.88206,-0.36256 6.20618,-1.01149 7.38521,-1.44333 1.17903,-0.43185 4.44882,-1.36144 7.26659,-2.06579 2.81775,-0.7032 5.60924,-1.58781 6.2059,-1.96655 0.59666,-0.37873 2.77084,-1.13843 4.83355,-1.6869 2.0615,-0.54847 4.34988,-1.41114 5.08707,-1.91919 0.73719,-0.50921 2.5372,-1.32593 3.99848,-1.8132 1.46128,-0.48727 3.2375,-1.28643 3.94731,-1.77485 0.71099,-0.48843 2.68622,-1.53529 4.38926,-2.32738 5.22941,-2.43291 7.9767,-3.93527 9.13906,-4.99757 0.61333,-0.55886 1.9701,-1.36127 3.01457,-1.78388 1.04445,-0.42145 2.70426,-1.47166 3.68678,-2.33189 0.98371,-0.86023 2.09625,-1.56287 2.47259,-1.56287 0.37753,0 0.99491,-0.42534 1.37004,-0.94494 0.37516,-0.5196 1.72626,-1.58511 3.00295,-2.36798 1.27787,-0.78286 3.07215,-2.02596 3.98917,-2.76264 3.89557,-3.12685 5.45695,-4.42105 7.44105,-6.16576 1.15521,-1.01611 2.59906,-2.2723 3.20762,-2.79422 0.60977,-0.52075 1.3028,-1.24865 1.54218,-1.61699 0.23819,-0.36718 1.61306,-1.7013 3.0541,-2.96336 1.44103,-1.26205 3.75546,-3.54875 5.1429,-5.081 1.38864,-1.53225 3.79801,-4.14451 5.35456,-5.80493 1.55657,-1.66042 3.50359,-4.04574 4.32414,-5.30202 0.82175,-1.25628 1.76351,-2.49498 2.09578,-2.75363 0.33227,-0.2598 1.13388,-1.30555 1.78175,-2.32513 0.64788,-1.01957 1.54224,-2.14649 1.98645,-2.50329 0.44303,-0.35679 1.08753,-1.29083 1.43052,-2.07254 0.34299,-0.78287 1.21016,-2.02811 1.9283,-2.76941 0.71813,-0.7413 1.69389,-2.22444 2.16788,-3.29713 0.474,-1.07269 1.1151,-2.10204 1.42355,-2.28678 0.30846,-0.18475 1.16438,-1.63834 1.90038,-3.22948 0.736,-1.59114 1.59301,-3.04693 1.90504,-3.23398 0.31202,-0.18706 1.15655,-1.61318 1.87945,-3.17083 0.7229,-1.55766 1.85241,-3.59997 2.50982,-4.53525 0.65739,-0.93644 1.33015,-2.5128 1.49331,-3.50235 0.60857,-3.69149 5.40357,-4.96484 8.92042,-2.36798 0.89677,0.66278 2.16648,1.36101 2.82149,1.55384 3.36322,0.99071 3.81271,4.44898 1.02114,7.88875 -0.5395,0.66509 -1.42817,2.36747 -1.97481,3.78426 -0.54664,1.41677 -1.40479,3.13562 -1.90736,3.82034 l -0.91648,1.24487 2.49586,2.49203 c 2.51288,2.5091 7.19275,5.48563 11.43487,7.27307 l 2.29349,0.96523 0.80249,-1.43431 c 0.44184,-0.78979 1.51028,-2.48349 2.3749,-3.76171 0.86343,-1.27822 1.8008,-3.35773 2.07948,-4.62094 0.27987,-1.26436 1.10743,-3.21669 1.84225,-4.33904 0.73362,-1.12118 1.59629,-3.11738 1.91666,-4.43601 0.32036,-1.31748 1.17175,-3.53952 1.89107,-4.93667 0.71933,-1.39716 1.56613,-3.78688 1.8841,-5.31104 0.31798,-1.52417 0.98287,-3.6706 1.47473,-4.76754 1.10282,-2.45829 1.59673,-6.0797 0.95601,-7.00921 -0.41208,-0.59697 -3.60785,-0.71016 -23.00466,-0.81639 l -22.52781,-0.12629 -1.90272,1.06221 c -1.68041,0.93528 -2.0442,1.46782 -3.10296,4.51269 -0.65978,1.89712 -1.76323,4.28139 -2.45397,5.2975 -0.68956,1.01611 -1.52165,2.67794 -1.85154,3.69405 -0.3287,1.01611 -1.08167,2.4719 -1.67476,3.23398 -0.59308,0.76209 -1.63553,2.52918 -2.31675,3.92634 -1.49462,3.06796 -3.83621,6.8996 -5.89654,9.65234 -0.83722,1.11772 -1.52125,2.24898 -1.52125,2.51456 0,0.26557 -0.57212,1.06143 -1.27001,1.76809 -0.69908,0.70666 -1.71781,1.99691 -2.26326,2.86638 -2.84634,4.53324 -13.45798,16.64995 -17.50121,19.98349 -0.35371,0.29097 -1.27287,1.19751 -2.04459,2.01617 -1.23739,1.3117 -2.87095,2.70655 -10.98363,9.3817 -1.04802,0.86254 -2.79826,2.10893 -3.88916,2.7694 -1.09209,0.66048 -2.11415,1.40257 -2.27254,1.65083 -0.36443,0.57156 -6.15881,4.28895 -8.36681,5.36742 -0.91704,0.44801 -2.37217,1.4094 -3.23322,2.13569 -0.86104,0.72744 -1.85252,1.32156 -2.20742,1.32156 -0.3549,0 -1.69698,0.70159 -2.982,1.55835 -1.28623,0.85792 -2.99457,1.70094 -3.79845,1.87183 -0.80269,0.17089 -2.57557,1.00505 -3.938,1.85604 -1.36363,0.85215 -3.2687,1.69187 -4.23574,1.86507 -0.96585,0.1732 -2.84498,0.9153 -4.17526,1.65083 -1.3291,0.73437 -3.81431,1.64859 -5.51972,2.03194 -1.70543,0.38335 -4.12504,1.13645 -5.37552,1.67337 -1.25168,0.53693 -4.55535,1.37108 -7.34334,1.85605 -2.78679,0.48496 -6.46139,1.29066 -8.16445,1.79064 -9.62397,2.82432 -42.38391,2.79875 -50.88006,-0.0405 -1.49106,-0.49766 -4.74166,-1.22226 -7.22239,-1.61023 -2.48191,-0.38797 -5.69744,-1.12131 -7.14564,-1.63052 -1.44937,-0.50921 -4.37656,-1.39169 -6.50595,-1.95979 -2.12941,-0.5681 -4.45853,-1.40671 -5.17547,-1.86281 -0.71814,-0.45494 -2.72844,-1.29795 -4.46603,-1.87182 -1.73876,-0.57388 -3.9853,-1.58678 -4.99402,-2.25071 -1.00873,-0.66509 -2.61649,-1.34137 -3.57283,-1.50649 -0.95632,-0.16396 -2.27581,-0.76914 -2.93082,-1.34186 -0.65502,-0.57271 -2.53074,-1.61522 -4.16828,-2.31611 -1.63755,-0.70088 -2.97735,-1.42223 -2.97735,-1.6012 0,-0.17898 -1.06271,-0.88711 -2.3656,-1.57414 -1.30169,-0.68703 -2.49795,-1.45218 -2.65635,-1.70043 -0.15839,-0.24825 -1.54112,-1.06492 -3.07504,-1.81546 -1.53393,-0.75053 -3.07273,-1.73713 -3.41929,-2.19207 -0.34657,-0.45494 -1.27254,-1.20804 -2.05856,-1.67337 -0.78602,-0.46534 -1.88732,-1.36861 -2.44468,-2.00715 -7.07625,-4.9913 -4.18172,-2.55766 -10.050883,-7.82785 -4.754227,-4.27806 -14.056888,-14.15863 -17.754753,-18.85814 -0.917023,-1.16622 -2.392485,-2.94757 -3.279734,-3.95791 -1.892401,-2.15692 -4.470636,-5.99595 -5.563917,-8.28567 -0.425165,-0.88909 -1.276499,-2.13434 -1.893405,-2.76941 -0.616907,-0.63507 -1.591467,-2.19387 -2.167882,-3.46401 -0.575224,-1.27014 -1.531733,-2.87385 -2.126011,-3.5655 -0.593087,-0.69049 -1.451234,-2.35457 -1.907364,-3.6963 -0.454938,-1.34057 -1.226071,-2.93449 -1.711974,-3.5407 -0.485902,-0.6062 -1.201582,-2.1431 -1.591019,-3.4144 -0.389437,-1.27129 -1.229532,-3.17322 -1.865493,-4.22628 -0.637153,-1.05306 -1.51227,-3.25638 -1.94458,-4.89832 -0.433502,-1.64195 -1.319858,-4.08978 -1.972493,-5.43959 -0.651444,-1.34981 -1.483649,-4.36441 -1.846885,-6.698 -0.363236,-2.33359 -1.18971,-5.60579 -1.837581,-7.27083 -1.288596,-3.3116 -2.941582,-17.36062 -3.475122,-29.53433 -0.453748,-10.35971 1.714097,-31.12763 3.856595,-36.94949 0.607379,-1.65118 1.339973,-4.72603 1.630561,-6.83331 0.34061,-2.47562 0.939614,-4.51939 1.688714,-5.77336 0.639535,-1.06807 1.421852,-3.2561 1.742214,-4.86225 0.320363,-1.6073 1.089225,-3.6418 1.707321,-4.52397 0.616907,-0.88332 1.577957,-3.00014 2.135317,-4.70212 0.557359,-1.70314 1.387239,-3.51075 1.844559,-4.0188 0.457321,-0.50806 1.206943,-2.06687 1.665453,-3.46402 0.458512,-1.39715 1.234129,-2.96692 1.723604,-3.48883 0.488286,-0.5219 1.52403,-2.21774 2.298141,-3.76846 0.77411,-1.55073 1.637931,-2.95715 1.918993,-3.12573 0.282252,-0.16859 1.155042,-1.48735 1.942253,-2.92953 0.786019,-1.44219 2.388168,-3.86806 3.55886,-5.39223 1.170694,-1.52416 2.506014,-3.39428 2.965717,-4.15637 0.460892,-0.76208 1.641262,-2.13454 2.623786,-3.04904 0.982524,-0.91335 1.786408,-1.82643 1.786408,-2.03196 0,-1.508 20.54857,-21.328657 24.70733,-23.83314 0.68955,-0.414527 1.77383,-1.302516 2.40979,-1.971071 0.63477,-0.668555 1.36515,-1.215557 1.62358,-1.215557 0.25724,0 1.55976,-0.806804 2.89361,-1.792893 1.33386,-0.98609 3.06939,-2.108616 3.85659,-2.494276 0.78603,-0.384506 1.83869,-1.1354 2.33769,-1.668858 0.499,-0.534706 1.10952,-0.972095 1.35842,-0.972095 0.24891,0 1.33994,-0.578814 2.42607,-1.285473 1.08613,-0.706659 3.15524,-1.771012 4.59628,-2.367978 1.44103,-0.59581 3.20137,-1.558298 3.91474,-2.137943 0.71218,-0.578491 2.40475,-1.410559 3.76123,-1.847025 1.35528,-0.436466 3.19713,-1.276189 4.09152,-1.865071 0.89559,-0.588883 2.84823,-1.412095 4.3381,-1.83124 1.49105,-0.417992 3.78169,-1.242346 5.09172,-1.831229 1.31003,-0.588882 3.66856,-1.322284 5.2406,-1.628272 1.57203,-0.305988 3.86948,-1.050277 5.10569,-1.655325 1.32074,-0.647771 4.26712,-1.407261 7.14562,-1.840263 2.69391,-0.406444 6.93378,-1.248308 9.42285,-1.871831 9.67042,-2.420192 36.20618,-2.521207 44.54156,-0.169141 1.83404,0.517293 5.86476,1.352554 8.95762,1.8583 3.09406,0.504591 6.73928,1.406767 8.09933,2.004887 1.36124,0.599275 4.03745,1.426886 5.94771,1.840258 1.91027,0.414527 4.37504,1.252045 5.47784,1.860557 1.10283,0.608512 3.07691,1.351705 4.38695,1.653074 1.31003,0.300215 3.17445,1.074168 4.14268,1.718475 0.96825,0.645461 2.6846,1.480774 3.81242,1.856042 1.12781,0.376423 2.69374,1.152524 3.47976,1.725241 0.78602,0.572717 2.60631,1.603123 4.04734,2.291308 4.10397,1.959477 7.80637,4.099084 9.48797,5.48469 0.84914,0.698576 1.72879,1.27194 1.95387,1.27194 0.22628,0 1.40097,0.830913 2.61217,1.847024 1.21118,1.016111 2.41641,1.847024 2.67961,1.847024 0.4466,0 1.5113,0.81603 7.7411,5.931225 2.53431,2.079564 5.98778,4.966428 6.61064,5.525289 2.1413,1.921373 11.23865,11.304397 12.16758,12.550287 4.60625,5.31277 6.26724,7.76797 9.11114,11.8895 1.3541,1.33134 5.0823,6.69296 6.37804,9.16973 0.40849,0.78055 1.05747,1.67062 1.44215,1.98007 0.38348,0.3083 1.18056,1.74873 1.77245,3.20015 0.5919,1.45028 1.45346,3.05294 1.91435,3.561 0.46089,0.50805 1.38345,2.12937 2.05157,3.60158 0.66811,1.47336 1.62009,3.24046 2.11671,3.92633 0.49662,0.68703 1.16258,2.08031 1.47937,3.09642 0.96108,3.08066 1.58,3.95192 3.63794,5.1216 l 1.97249,1.12084 22.56272,-0.11952 22.56501,-0.11953 0.38846,-1.90566 c 0.30131,-1.47682 0.17315,-2.43253 -0.56524,-4.24883 -0.52401,-1.28977 -1.40594,-4.07087 -1.95853,-6.1793 -0.55379,-2.10727 -1.40183,-4.45424 -1.88178,-5.21632 -0.47994,-0.76208 -1.24312,-2.63445 -1.69568,-4.15862 -0.45374,-1.52416 -1.54364,-4.08596 -2.42374,-5.69442 -0.88012,-1.60846 -1.60034,-3.39201 -1.60034,-3.96242 0,-0.57041 -0.60493,-1.95604 -1.34212,-3.07838 -0.73719,-1.12349 -1.92892,-2.94105 -2.64705,-4.03683 -0.71814,-1.09579 -1.453,-1.91685 -1.63522,-1.82448 -0.18102,0.0935 -1.61698,0.72821 -3.18902,1.41177 -1.57203,0.68357 -3.60714,1.65486 -4.52416,2.15598 -0.91702,0.50229 -2.77245,1.44503 -4.12178,2.09511 -3.78718,1.82554 -3.78034,1.80031 -1.87246,7.11295 0.9194,2.56222 2.12798,5.25885 2.68891,5.99437 0.56093,0.73437 1.41345,2.71086 1.89341,4.39091 l 0.8746,3.05582 -1.18397,1.36216 c -1.33266,1.53571 -5.26937,3.52237 -7.86204,3.96692 -2.86779,0.49074 -6.11516,-2.80842 -6.76184,-6.8694 -0.15482,-0.97454 -0.93049,-2.74813 -1.72129,-3.94437 -0.79078,-1.19508 -1.77215,-3.09371 -2.18183,-4.21951 -0.40968,-1.12465 -1.14574,-2.46751 -1.63522,-2.98365 -0.49066,-0.51498 -1.24482,-1.76683 -1.67475,-2.78294 -0.42993,-1.01611 -1.31294,-2.59468 -1.96319,-3.50687 -0.65025,-0.91219 -1.65995,-2.4995 -2.24232,-3.52716 -1.86262,-3.28504 -3.87436,-6.24666 -5.39875,-7.94287 -0.81699,-0.90873 -1.84468,-2.33596 -2.28652,-3.1731 -4.64955,-4.542593 -4.24617,-4.640694 -6.97117,-8.177418 -4.00395,-5.689067 -20.77835,-21.25321 -26.89383,-24.956242 -0.78601,-0.475724 -2.22873,-1.499629 -3.20529,-2.273259 -4.12185,-3.264257 -4.99554,-3.870333 -7.01537,-4.864505 -1.16831,-0.575026 -3.17635,-1.746856 -4.46138,-2.604777 -1.28503,-0.856767 -2.5604,-1.558357 -2.83312,-1.558357 -0.27392,0 -1.23832,-0.546956 -2.14462,-1.21782 -0.90749,-0.670865 -2.75161,-1.623503 -4.09619,-2.115393 -1.34457,-0.493045 -2.87202,-1.269147 -3.39603,-1.725243 -1.29812,-1.129269 -2.45088,-1.638027 -5.16384,-2.280025 -1.26835,-0.300214 -2.87612,-0.954697 -3.57281,-1.452359 -0.6967,-0.497664 -2.80202,-1.317679 -4.67537,-1.819962 -1.87454,-0.502282 -4.19571,-1.363901 -5.15918,-1.914681 -0.96347,-0.550778 -3.6634,-1.38169 -6.00121,-1.847023 -2.33781,-0.464178 -4.90329,-1.173525 -5.69884,-1.571887 -0.79554,-0.399516 -4.92359,-1.22498 -9.1693,-1.833492 -4.24688,-0.609667 -9.14482,-1.430729 -10.88359,-1.824472 -3.0631,-0.692803 -16.53728,-1.703627 -20.89493,-1.567376 z m 110.18975,0.611165 c 0.0667,0.02426 0.11374,0.03816 0.18143,0.06315 1.14568,0.424919 2.15694,1.146011 2.32606,1.65984 -0.14027,-0.427306 -1.33988,-1.173375 -2.50749,-1.722987 z m -5.65696,1.077994 c -0.0877,0.141744 -0.17426,0.285731 -0.23493,0.448789 0.0594,-0.159509 0.14161,-0.307008 0.23493,-0.448789 z M 201.3547,63.688368 c -0.78429,-0.01212 -1.46009,-0.0046 -1.9911,0.02252 -0.65502,0.03348 -4.09781,0.213268 -7.65039,0.39917 -4.31477,0.226315 -8.03096,0.723783 -11.19528,1.499722 -2.60458,0.638533 -6.98352,1.514398 -9.7322,1.946245 -2.7475,0.433002 -5.79917,1.1828 -6.77812,1.666607 -0.98014,0.484962 -3.23469,1.205154 -5.008,1.601206 -1.77449,0.394898 -4.12507,1.228063 -5.2243,1.849276 -1.09925,0.620059 -3.27239,1.512389 -4.82656,1.98234 -1.55418,0.468797 -3.56782,1.401679 -4.47533,2.072544 -0.90749,0.670864 -2.05965,1.224471 -2.55866,1.22909 -0.499,0.0035 -1.76649,0.510965 -2.81451,1.129869 -1.04803,0.617749 -3.12277,1.754581 -4.61025,2.523593 -1.48747,0.768999 -2.84198,1.614173 -3.0099,1.878593 -0.16912,0.264419 -1.41617,1.024124 -2.77265,1.686906 -1.35768,0.663936 -3.1599,1.752502 -4.00546,2.417593 -0.84439,0.665091 -2.45216,1.891722 -3.57282,2.72655 -1.1195,0.834827 -3.18178,2.393634 -4.58233,3.464014 -1.40173,1.070381 -3.10219,2.360588 -3.77983,2.868643 -3.93248,2.946722 -14.783793,14.065211 -18.729373,19.189641 -1.653023,2.14769 -3.711917,4.72044 -4.575348,5.71923 -0.86343,0.99879 -1.572408,2.038 -1.572408,2.30935 0,0.27134 -0.749565,1.31391 -1.667779,2.31385 -0.918214,0.99995 -1.874728,2.5379 -2.126017,3.41892 -0.251285,0.88101 -0.96248,2.14281 -1.579387,2.80098 -0.616905,0.65931 -1.5271,2.1337 -2.021339,3.27683 -0.49424,1.14312 -1.385192,2.65917 -1.979471,3.36929 -0.594277,0.71013 -1.316767,2.16591 -1.604975,3.23399 -0.288207,1.06807 -1.020914,2.67943 -1.62591,3.58354 -0.606188,0.90296 -1.567182,3.29388 -2.137643,5.30878 -0.570459,2.01605 -1.30873,3.97598 -1.642192,4.35933 -0.907496,1.04383 -1.616663,3.12393 -2.209749,6.47248 -0.292971,1.65118 -0.955525,3.93458 -1.472393,5.07424 -1.323132,2.92132 -1.701217,4.82368 -2.805217,14.16728 -0.535923,4.53093 -1.206364,10.10843 -1.491,12.39468 -0.544258,4.38198 -0.278996,14.22023 0.509406,18.93707 0.25486,1.52416 0.815644,5.99229 1.246763,9.92972 0.55736,5.07478 1.184501,8.30389 2.153925,11.08665 0.751483,2.15924 1.681996,5.42478 2.06786,7.25955 0.385865,1.83362 1.222555,4.22334 1.858516,5.31104 0.635962,1.08654 1.516698,3.27462 1.958536,4.85999 0.441838,1.58652 1.434505,4.05081 2.207423,5.47567 0.77292,1.42487 1.404936,2.91351 1.404936,3.30841 0,0.3949 0.541542,1.40554 1.204895,2.24845 0.662162,0.84175 1.821075,2.86431 2.574939,4.4924 0.753864,1.62924 1.615359,3.10797 1.916666,3.2881 0.300118,0.18013 1.039579,1.40902 1.642194,2.72881 0.601425,1.31979 1.663158,2.99257 2.356284,3.71886 0.694318,0.72514 1.260729,1.5704 1.260729,1.87408 0,0.30483 0.461333,0.95052 1.023456,1.43432 0.563315,0.48381 1.774165,2.01082 2.69357,3.3941 3.483496,5.23991 4.756705,6.6557 14.386633,16.01432 8.4358,7.96665 16.58104,13.44866 17.77337,14.67921 2.77369,2.58069 4.3581,3.65159 8.66454,5.84778 1.57204,0.80249 3.28838,1.83619 3.81239,2.29806 0.52403,0.46302 2.15552,1.27529 3.62632,1.80644 1.47081,0.5323 3.05145,1.37201 3.51234,1.86506 0.46089,0.4942 2.04262,1.23189 3.517,1.6418 1.47438,0.40991 3.40443,1.1509 4.28691,1.64856 0.88129,0.49766 3.23749,1.33733 5.23827,1.86732 1.99958,0.53 4.6012,1.43443 5.78024,2.00715 1.17903,0.57387 3.75238,1.29296 5.71743,1.59895 1.96506,0.30713 5.28684,1.07889 7.38289,1.71396 8.20795,2.48716 42.79563,2.7597 48.66101,0.38339 0.99324,-0.40183 4.46988,-1.24595 7.72948,-1.87409 3.2584,-0.6293 6.58814,-1.53362 7.39917,-2.01165 0.80984,-0.47803 3.14689,-1.30669 5.19175,-1.84477 2.04483,-0.53692 4.19982,-1.28573 4.78934,-1.65984 0.5907,-0.37527 2.31936,-1.09766 3.84496,-1.60571 1.52559,-0.50921 3.74959,-1.55172 4.94053,-2.31611 1.19094,-0.76439 2.4064,-1.38922 2.70056,-1.38922 0.29535,0 2.00602,-0.93619 3.80077,-2.07931 1.79474,-1.14313 3.5054,-2.07931 3.80075,-2.07931 0.29537,0 1.6295,-0.7794 2.96573,-1.73201 1.33504,-0.9526 3.04576,-2.09483 3.79844,-2.53938 3.60259,-2.12805 4.33951,-2.69195 12.36763,-9.46064 4.77684,-4.02864 11.77269,-10.80375 14.72623,-14.26199 1.04802,-1.22742 2.51559,-2.84428 3.26112,-3.59482 0.74672,-0.75053 1.86261,-2.14161 2.4819,-3.09191 0.6181,-0.95029 1.32934,-1.85027 1.57705,-2.00037 0.64907,-0.38797 5.78025,-7.85992 5.78025,-8.41647 0,-0.25519 0.51895,-0.93928 1.15372,-1.51777 0.63477,-0.57734 1.78461,-2.33127 2.55633,-3.89702 0.77173,-1.56688 1.75203,-3.1301 2.17719,-3.47303 0.42636,-0.34179 1.012,-1.47641 1.30259,-2.51908 0.2894,-1.04382 1.12722,-2.73415 1.86084,-3.75719 0.7348,-1.02188 1.70603,-2.97972 2.15858,-4.35032 0.45256,-1.37059 1.31411,-3.19355 1.91434,-4.05263 0.60142,-0.85907 1.31261,-2.54396 1.57938,-3.74366 0.67884,-3.04834 3.70877,-9.2229 4.80564,-9.79215 0.59546,-0.30945 11.32625,-0.4736 30.89694,-0.4736 25.85528,0 30.0664,-0.0933 30.56898,-0.68107 0.32155,-0.37527 0.90946,-3.30765 1.30723,-6.51533 1.08375,-8.74433 5.07274,-7.76603 -32.87176,-8.04662 -17.35079,-0.12816 -31.90544,-0.40553 -32.34609,-0.61568 -1.99481,-0.95029 -2.68517,-10.71314 -0.90948,-12.8412 l 0.90948,-1.08928 33.03227,-0.25483 c 18.16777,-0.13856 33.07971,-0.29309 33.13926,-0.34505 1.68996,-1.48606 2.28952,-10.94075 0.77225,-12.16239 -0.65144,-0.52422 -8.66897,-0.67323 -46.19306,-0.86375 l -45.40919,-0.23004 -7.27822,-7.17384 c -9.20119,-9.06764 -8.51019,-8.15007 -7.95044,-10.56795 0.63716,-2.74927 5.10708,-7.16072 7.72714,-7.6249 l 1.81433,-0.32023 5.7686,5.68314 5.77094,5.68541 40.88502,0.12855 c 45.55816,0.14202 43.76431,0.25532 43.72978,-2.79648 -0.0405,-3.42476 -1.28235,-10.46365 -2.04693,-11.59407 l -0.81644,-1.21105 h -29.927 c -27.9025,0 -29.97592,-0.0533 -30.66666,-0.80737 -1.4994,-1.63617 -3.6876,-5.72517 -4.44741,-8.31048 -0.42993,-1.46296 -1.40001,-3.72221 -2.15625,-5.02237 -0.75625,-1.30016 -1.67212,-3.17578 -2.03297,-4.16765 -0.36087,-0.9907 -1.21788,-2.60657 -1.90505,-3.58804 -0.68717,-0.98263 -1.46392,-2.55453 -1.72593,-3.49559 -0.26081,-0.94106 -0.92563,-2.10854 -1.47703,-2.59351 -0.5526,-0.4838 -1.61315,-2.17738 -2.35629,-3.76621 -0.74315,-1.58883 -1.53114,-2.88893 -1.75385,-2.88893 -0.22151,0 -0.78116,-0.62268 -1.24444,-1.38246 -3.18676,-4.77709 -4.6166,-6.63757 -9.85083,-12.93592 -0.8015,-0.8891 -2.4545,-2.75922 -3.67282,-4.15637 -2.8273,-3.24347 -12.07354,-12.102339 -14.34942,-13.750055 -0.95752,-0.692803 -2.41487,-1.883293 -3.24021,-2.645376 -3.967,-3.660309 -4.8595,-4.352731 -7.07583,-5.500475 -2.67129,-1.382142 -5.01211,-2.883815 -7.1689,-4.593884 -0.80031,-0.633915 -2.67713,-1.676364 -4.17294,-2.318361 -1.49701,-0.641998 -2.84925,-1.490462 -3.00526,-1.885359 -0.15601,-0.393744 -1.49474,-1.056975 -2.9727,-1.472657 -1.47914,-0.416837 -3.33109,-1.220292 -4.1171,-1.78839 -0.78602,-0.566944 -2.6063,-1.397857 -4.04733,-1.847024 -1.44105,-0.449168 -3.21279,-1.218722 -3.93569,-1.709457 -0.7229,-0.49189 -3.2476,-1.394012 -5.61043,-2.007143 -2.36163,-0.61313 -4.9225,-1.429783 -5.69185,-1.815444 -0.76815,-0.384505 -3.8175,-1.098208 -6.77579,-1.58317 -2.95949,-0.484962 -7.09418,-1.31912 -9.19023,-1.856042 -2.95532,-0.756749 -13.71618,-1.732724 -19.20622,-1.817707 z m 76.99233,42.932572 c 3.1305,-0.0747 6.80994,0.32078 7.66666,1.07349 0.90512,0.79557 1.00253,1.38304 1.00253,6.12066 0,7.16358 -0.82452,7.86517 -8.76689,7.47605 -5.32112,-0.26096 -5.52437,-0.53917 -5.52437,-7.6046 v -5.68766 l 1.30956,-0.71039 c 0.75297,-0.40875 2.43421,-0.62274 4.31251,-0.66755 z m -256.112299,0.8863 -1.26072,3.20015 c -0.693125,1.75972 -1.569377,3.44676 -1.946905,3.75043 -0.376336,0.30253 -1.118067,1.9096 -1.646845,3.57002 -0.529968,1.66157 -1.371087,3.66321 -1.872472,4.44954 -0.500194,0.78517 -1.342505,2.9447 -1.872472,4.7991 -0.529968,1.85556 -1.407354,4.0677 -1.949231,4.91638 -0.540686,0.84869 -1.393213,3.38423 -1.8934069,5.63353 -0.4990033,2.25046 -1.4464879,5.23319 -2.105077,6.63035 -0.6585891,1.39715 -1.434207,4.24836 -1.7236051,6.33716 -0.290589,2.08764 -1.0537198,5.50232 -1.6980177,7.58881 -0.7228998,2.34398 -1.4468607,6.5443 -1.8910808,10.98517 -0.3965826,3.95475 -1.0410853,9.18797 -1.43052223,11.63241 -1.09209078,6.85413 -0.98269115,8.29074 0.75131563,9.90266 l 1.46076,1.35764 7.9992931,0.14659 8.001619,0.14433 1.258396,-1.45236 c 0.691935,-0.79787 1.356813,-1.90174 1.474717,-2.45367 0.861048,-4.00556 2.211777,-13.53407 2.62146,-18.46798 0.34299,-4.14412 0.85353,-6.93862 1.70267,-9.32533 0.666926,-1.87403 1.544369,-5.23829 1.946905,-7.47605 0.402538,-2.23775 1.335322,-5.42118 2.072513,-7.07236 0.738382,-1.65118 1.588638,-4.14062 1.888754,-5.53431 0.300117,-1.39369 0.97175,-3.23199 1.491,-4.08645 0.520439,-0.8533 1.364965,-3.02378 1.87945,-4.82392 0.514486,-1.79897 1.440459,-4.01447 2.058557,-4.92088 0.618096,-0.90642 1.399333,-2.47948 1.73756,-3.49559 0.338226,-1.01611 0.883174,-2.36662 1.211873,-3.00169 1.252868,-2.41904 0.296805,-4.64259 -2.591222,-6.0282 -1.416026,-0.67894 -2.819119,-1.55916 -3.119236,-1.95752 -0.300117,-0.39837 -1.713425,-1.22818 -3.140171,-1.84478 -1.425552,-0.61659 -3.001705,-1.56813 -3.500708,-2.11314 -0.710991,-0.77594 -1.448517,-0.99004 -3.409992,-0.99004 z m 1.063007,1.43433 c -0.393229,0.15966 -0.669902,0.38412 -0.669902,0.60213 0,-0.25633 0.180129,-0.44236 0.669902,-0.60213 z M 241.40466,121.3633 c 0.7193,-0.006 1.54633,0 2.49819,0 7.55412,0 7.38521,-0.16411 7.38521,7.12649 0,5.2907 0.61682,8.03637 1.98878,8.8585 0.24414,0.14664 2.65012,0.0118 5.34759,-0.29769 5.33779,-0.61313 6.08888,-0.49772 11.33021,1.73426 4.809,2.04839 5.31059,4.90222 3.96125,22.58601 -0.87891,11.51554 -0.79841,15.36276 0.36752,17.51853 l -0.60258,2.65343 c -0.80978,0.98774 0.24235,0.4416 -0.0975,2.94628 -0.58475,4.31039 -0.76478,4.57355 -3.36579,4.91187 -1.44223,0.18821 -2.1127,0.53019 -3.19427,0.61656 -1.44952,-0.16175 -2.64669,-0.0648 -4.40029,-0.31211 -4.61965,-0.63276 -4.80811,-0.97586 -4.60327,-8.3646 0.73481,-26.40503 -1.79038,-28.28387 -37.69599,-28.04139 -5.10913,0.0346 -11.5402,0.23418 -14.29126,0.44202 -11.41517,0.8614 -12.38626,3.09577 -12.38626,28.52626 0,14.89295 0.25209,16.52174 2.84477,18.44543 l 1.68173,1.24713 h 9.05067 c 16.56834,0 18.51238,-1.50467 18.39209,-14.23493 -0.0464,-4.92698 0.10897,-7.56758 0.47218,-7.9925 0.96347,-1.12465 12.90508,-0.89102 13.99121,0.27289 1.06351,1.13966 0.44625,10.2157 -1.22583,18.02821 -1.08851,5.08748 -1.50637,15.94541 -0.75131,19.50989 1.54682,10.37626 0.0241,1.02232 1.54682,10.37626 0.86939,5.19486 0.85854,7.23901 -0.0442,8.93292 l -0.72804,1.3644 -5.58487,-0.018 c -3.942,-0.0115 -5.93497,-0.21124 -6.77579,-0.67657 0,0 -1.48783,0.93874 -1.0723,-7.73315 0.39539,-8.58036 -0.79049,-10.47968 -7.40615,-11.83988 -3.02856,-0.62237 -15.66048,-0.60004 -18.67355,0.0315 -5.05076,1.05999 -5.34292,2.22518 -5.59183,22.41461 l -0.20004,16.26464 c -0.2685,4.82806 1.08117,4.49599 1.18165,6.85586 0.60261,5.7595 4.21592,8.87044 10.32068,8.89007 8.2139,0.0254 8.5643,0.33904 8.57383,7.66774 0.01,7.37027 -1.34259,8.07823 -11.49535,6.0079 -9.18333,-1.87172 -21.38922,-1.98724 -30.42011,-0.28641 -2.48907,0.46879 -6.99127,1.09691 -10.00434,1.39597 -3.30178,0.28221 -6.18859,1.40511 -7.13866,-1.40274 -1.78046,-11.54672 -0.8835,-13.06802 7.6341,-12.96525 8.92132,0.10738 10.56547,-1.11587 11.68376,-8.68936 1.00038,-6.786 0.9807,-96.51468 -0.0232,-102.99354 -0.94322,-6.08743 -0.86015,-5.97703 -6.88511,-9.26669 -1.56251,-0.85331 -6.06116,-0.75823 -8.36681,0.1759 -3.51922,1.42486 -5.19513,-1.40832 -4.70327,-7.95415 0.57284,-7.61506 1.1457,-8.02079 9.27862,-6.62133 7.45766,1.284 16.02327,1.90116 26.33323,1.90116 11.42348,0 10.77427,0.56213 10.77427,-9.32533 0,-8.8494 -0.36488,-8.40138 7.01537,-8.61268 7.45528,-0.21362 7.13131,-0.5946 7.34568,8.65778 0.2227,9.68539 -0.70985,8.92488 10.72077,8.73897 11.69384,-0.19052 10.83326,0.49706 11.04643,-8.82692 0.18132,-7.93014 -0.0736,-8.60057 4.96146,-8.64425 z m 59.80976,25.17275 c -0.14054,2.22158 -0.22681,2.34915 -2.26093,3.34449 -3.07967,0.90763 -0.58073,1.5766 -6.2222,0.77354 -1.17902,-0.16166 -3.05475,-0.67581 -4.16828,-1.14114 l -2.02362,-0.84797 v -4.8442 c 0,-7.56772 0.57003,-8.13909 8.10629,-8.13909 4.68633,0 6.34074,0.76523 6.88977,3.18888 -0.22044,3.76385 -0.21292,2.17812 -0.32103,7.66549 z M 120.79887,134.75028 c 0.5591,-3.1e-4 1.30612,1.8e-4 1.94923,0.002 -3.49759,0.0754 -6.67535,0.25353 -7.97836,0.539 1.10759,-0.46694 2.94568,-0.53956 6.02913,-0.54125 z m 14.44478,0.4082 c 0.19449,0.0404 0.34432,0.0845 0.43496,0.1308 -0.0918,-0.0469 -0.25396,-0.0897 -0.43496,-0.1308 z m -10.15555,0.46005 c 4.97485,0.0498 9.96689,0.33982 10.52306,0.82767 1.45176,1.27476 1.29551,12.28873 -0.18841,13.29676 -1.27192,0.8637 -18.81054,1.07037 -20.40878,0.24132 -1.12067,-0.58196 -1.43022,-12.70168 -0.35123,-13.74781 0.49186,-0.47688 5.45051,-0.66773 10.42536,-0.61794 z m -11.82564,1.87184 c -0.099,0.9939 -0.12329,2.49565 -0.12329,5.27496 0,-2.4194 -0.0603,-4.09292 0.12329,-5.27496 z M 89.832135,148.6131 c 0.164349,0 1.025838,0.2423 1.916661,0.53674 1.396971,0.46187 4.895543,3.47449 11.281354,9.71548 l 1.56311,1.52678 15.20772,0.13306 15.21239,0.13531 1.02811,1.25166 c 1.3946,1.69621 1.11737,11.2755 -0.35821,12.35859 -1.18379,0.87062 -35.937131,0.93701 -37.78904,0.0722 -0.655017,-0.30599 -4.353345,-3.7218 -8.217941,-7.5888 l -7.02468,-7.02951 v -2.19659 c 0,-2.01606 5.556085,-8.91488 7.180526,-8.91488 z m 128.193375,6.1996 c 2.6014,0.006 5.54703,0.0224 8.88552,0.0473 -6.33702,-0.0471 -12.32603,-0.0363 -16.71734,0.0115 2.21703,-0.0431 4.71136,-0.0651 7.83182,-0.0587 z m -17.51749,0.89983 c -1.79476,0.63125 -2.92972,1.66559 -3.61701,3.243 0.70613,-1.62177 1.39965,-2.62584 3.61701,-3.243 z m -91.99071,34.03575 c -9.552843,0.0104 -17.798581,0.10126 -22.634817,0.21875 3.941924,-0.20163 10.506354,-0.20494 22.634817,-0.21875 z m -28.359229,1.31254 c -0.486231,0.41188 -1.016882,0.91198 -1.493324,1.42304 0.558397,-0.59931 0.954276,-1.05946 1.493324,-1.42304 z m 2.088796,0.96974 h 26.130863 26.12855 l 1.02578,1.26517 c 1.36126,1.67658 1.26917,10.19581 -0.13258,12.26614 l -0.84436,1.24713 h -26.10062 c -20.168548,0 -26.264073,-0.13163 -26.833342,-0.57733 -2.928517,-2.29664 -3.481206,-10.85123 -0.839704,-13.00584 z M 11.741911,206.809 c -6.8216967,0 -7.6806243,0.0928 -9.6158996,1.03966 L 0,208.88831 l 0.12793183,3.46402 c 0.0702654,1.90521 0.43318608,5.23111 0.80714083,7.39035 0.37514574,2.15923 0.91668814,6.41907 1.20489534,9.4674 0.6419159,6.80333 1.2722761,10.58004 2.1190324,12.71041 0.3560918,0.89372 1.0141033,3.80304 1.4630873,6.46571 0.4477929,2.66267 1.4348393,6.36566 2.1934672,8.2293 0.757437,1.86479 1.6845459,4.82127 2.0608825,6.56945 0.3763366,1.74817 1.2152966,4.06772 1.8631676,5.15542 0.649061,1.08655 1.549094,3.43136 1.998079,5.20955 0.448983,1.7782 1.216711,3.78315 1.704996,4.45632 0.488284,0.67317 1.289953,2.47203 1.779429,3.9985 0.490667,1.52648 1.314872,3.36704 1.832929,4.08871 0.51925,0.72167 1.513107,2.52927 2.207425,4.0188 l 1.260718,2.70851 1.730584,-0.31572 c 1.930511,-0.35102 7.060704,-2.64792 8.252834,-3.69405 0.425164,-0.37296 1.731085,-1.091 2.900586,-1.59444 1.169503,-0.50344 3.151484,-1.92852 4.405543,-3.16633 l 2.279531,-2.25071 -0.988572,-1.22007 c -0.543069,-0.66971 -1.398944,-2.3776 -1.90271,-3.79553 -0.502577,-1.41679 -1.332512,-3.14443 -1.842233,-3.83839 -0.509722,-0.69511 -1.2955,-2.50716 -1.746866,-4.02556 -0.450175,-1.51839 -1.329832,-3.74258 -1.953884,-4.94343 -0.622861,-1.20201 -1.367942,-3.28043 -1.656149,-4.61869 -0.288207,-1.33942 -1.129438,-3.78615 -1.86782,-5.43733 -0.738382,-1.65118 -1.685867,-4.92118 -2.105078,-7.26632 -0.4204,-2.34398 -1.181317,-5.20844 -1.69104,-6.36196 -0.917022,-2.07379 -1.110977,-3.25995 -2.686589,-16.39319 -1.701851,-14.19668 -1.733802,-14.35148 -3.184365,-15.7775 L 19.234124,206.809 Z m 278.205139,0 h 11.84892 11.8489 l 1.27234,1.61925 c 1.62683,2.06801 1.57881,8.58183 -0.0837,11.34149 l -0.956,1.58768 -11.40463,0.1308 c -6.27387,0.0716 -11.88868,0.0157 -12.47462,-0.12404 -3.20601,-0.76093 -4.37127,-11.02868 -1.51659,-13.35765 z m -154.96392,14.7807 0.98624,1.21556 c 1.72211,2.12344 1.19229,10.58243 -0.80016,12.75552 -0.67645,0.73783 -2.06138,0.80737 -15.88461,0.80737 h -15.14492 l -5.552288,5.30427 c -7.351664,7.02271 -7.89715,7.18492 -11.709344,3.48882 -1.539884,-1.49299 -2.798243,-2.87751 -2.798243,-3.07612 0,-0.1986 -0.684008,-1.04481 -1.521238,-1.88311 l -1.523565,-1.52452 1.523565,-1.52227 c 0.83723,-0.83829 1.521238,-1.68015 1.521238,-1.87183 0,-0.19283 2.313292,-2.58915 5.14058,-5.32457 2.826098,-2.73657 5.568996,-5.54833 6.096582,-6.24921 1.429127,-1.9029 2.68621,-2.02174 21.955603,-2.07254 z m 167.43389,14.23719 c 1.79611,0.0293 3.41266,0.35802 4.30319,1.03741 2.20204,1.68004 1.67976,12.1519 -0.66757,13.36892 -1.64469,0.85446 -7.68062,0.54389 -9.41819,-0.48261 -2.82133,-1.66735 -4.27902,-9.71754 -2.13532,-11.79479 1.43657,-1.39355 4.92437,-2.17771 7.91789,-2.12893 z m -8.09466,29.01564 c 2.34287,0.009 4.65261,0.47843 5.64764,1.40275 2.22706,2.06801 1.60102,10.67282 -0.90948,12.50067 -1.19332,0.86831 -8.22503,0.76208 -9.56007,-0.14434 -3.00355,-2.03915 -3.67579,-10.23412 -1.01881,-12.40144 1.12246,-0.91623 3.49784,-1.36687 5.84072,-1.35764 z m -29.46644,28.7202 c 2.23152,0.005 4.6309,0.34178 5.98262,1.01034 l 1.88642,0.93366 v 4.42248 c 0,6.9846 -1.05468,8.02858 -8.10862,8.02858 h -4.25202 l -0.80715,-1.49972 c -1.65421,-3.07605 -1.46648,-10.17676 0.31635,-11.9053 0.68598,-0.66509 2.75089,-0.99437 4.9824,-0.99004 z m 89.07849,3.02651 -2.1167,1.19977 c -1.16473,0.66047 -2.66285,2.04499 -3.32858,3.07611 -2.85706,4.42471 -7.99587,10.83967 -15.23797,19.02052 -3.80981,4.30461 -17.5747,17.63354 -18.21066,17.63354 -0.368,0 -4.57039,3.39179 -7.06423,5.70345 -0.65501,0.60735 -1.83311,1.48758 -2.61913,1.95753 -0.78602,0.4688 -1.88277,1.27451 -2.43537,1.79064 -0.55259,0.51614 -1.89241,1.44793 -2.97735,2.0703 -2.47477,1.4214 -2.76447,3.93208 -0.78156,6.76564 0.65502,0.93644 1.19094,1.96795 1.19094,2.29356 0,0.32678 0.49864,1.18069 1.10722,1.8989 0.60737,0.7182 1.59447,2.49295 2.19113,3.94438 1.1302,2.74465 1.55162,3.05625 4.32412,3.18211 2.10321,0.0947 3.74726,-0.54521 5.78258,-2.25297 0.8801,-0.73899 1.96329,-1.53374 2.40513,-1.76583 0.94322,-0.4942 4.28612,-3.15106 6.05704,-4.81264 0.68122,-0.63968 1.87964,-1.55502 2.66565,-2.0342 0.78602,-0.47804 2.07271,-1.43613 2.85873,-2.12893 11.14837,-9.82741 11.41415,-10.08587 21.081,-20.59916 1.89956,-2.0657 3.45187,-3.95669 3.45187,-4.20148 0,-0.24479 0.45793,-0.84 1.01648,-1.32381 1.66731,-1.44334 7.42599,-8.9174 9.75546,-12.65853 0.71099,-1.14313 1.77836,-2.59666 2.37025,-3.23173 0.5919,-0.63507 1.44215,-2.0503 1.88876,-3.14378 l 0.81412,-1.9891 -1.41425,-1.70494 c -1.24214,-1.49761 -3.62223,-3.19551 -8.411,-5.99212 -0.75029,-0.43762 -2.03805,-1.22363 -2.86337,-1.74554 z m -304.903558,1.16819 c -1.038891,-0.0491 -2.16667,0.18313 -3.356493,0.70815 -1.342188,0.59119 -2.594926,1.31798 -2.784285,1.61473 -0.189359,0.29675 -1.448851,1.01364 -2.800566,1.59444 -9.177373,3.94204 -9.642213,7.04628 -2.316747,15.52041 0.768154,0.8891 1.736071,2.25497 2.146946,3.03552 0.412064,0.78055 1.113044,1.7146 1.558454,2.07255 0.445412,0.3591 1.35339,1.48822 2.014361,2.5078 0.662163,1.01957 1.685364,2.37339 2.274879,3.00846 0.589514,0.63507 3.34717,3.68692 6.126821,6.78144 11.173642,8.69464 10.461175,11.38844 18.37116,18.08685 7.354046,6.22253 7.950669,6.69614 14.640173,11.63467 2.434278,1.79782 8.818151,4.45314 9.062293,3.77073 0.06788,-0.18937 0.868373,-1.37876 1.779441,-2.64313 0.911068,-1.26436 2.036089,-2.88893 2.498172,-3.6106 0.462085,-0.72167 1.484208,-2.26402 2.270229,-3.42793 4.58749,-6.79062 4.28645,-7.94894 -3.335559,-12.88631 -1.048026,-0.67895 -2.45799,-1.77077 -3.130871,-2.42662 -0.67288,-0.65585 -2.691068,-2.23221 -4.484622,-3.50235 -1.794744,-1.27014 -4.035662,-3.08875 -4.980077,-4.04135 -5.472562,-3.05016 -1.974435,-0.96743 -7.771342,-6.8288 -5.096026,-5.13598 -10.669844,-11.10026 -11.900083,-12.73297 -2.717721,-3.60834 -4.276046,-5.60013 -5.384811,-6.88066 -0.66097,-0.76208 -1.927218,-2.22217 -2.816849,-3.24751 -0.88844,-1.02535 -1.98066,-2.7486 -2.426072,-3.82937 -1.115984,-2.703 -2.968993,-4.17023 -5.254552,-4.27815 z m -0.08374,1.0126 c -0.185845,0.0251 -1.156648,0.22932 -2.146945,0.44427 0.624644,-0.17276 1.316536,-0.32921 2.146945,-0.44427 z m -4.403216,1.54031 c -0.09687,0.11397 -0.190681,0.22832 -0.248887,0.35407 0.05672,-0.12239 0.143596,-0.23999 0.248887,-0.35407 z m 6.512946,0.0722 c 0.04342,0.0403 0.07739,0.0627 0.120955,0.1038 1.032543,0.96993 2.232154,2.62635 2.665655,3.67825 -0.412899,-1.00113 -1.641147,-2.58421 -2.78661,-3.782 z m 68.311498,59.21526 c -0.40528,0.009 -0.81013,0.0814 -1.22815,0.21424 -2.01269,0.63969 -3.45438,2.04512 -4.09153,3.98497 -0.30012,0.9145 -1.13907,2.28698 -1.86316,3.04906 -0.72528,0.76208 -1.77341,2.32089 -2.32838,3.46402 -0.55498,1.14312 -1.54429,2.78639 -2.19812,3.64894 -0.65501,0.8637 -1.18862,1.72201 -1.18862,1.90791 0,0.70204 5.07539,4.48924 6.71532,5.00884 0.94203,0.30022 2.69902,1.15083 3.90544,1.89213 1.20642,0.74245 3.23364,1.65013 4.50556,2.01617 1.27192,0.36603 3.37146,1.19914 4.66839,1.85153 1.29573,0.65239 3.42814,1.41424 4.73817,1.69367 1.31003,0.28058 3.34514,1.03363 4.52416,1.67562 1.17904,0.64085 4.00792,1.55288 6.28499,2.02745 2.27589,0.47457 5.00182,1.29012 6.05937,1.81319 1.05636,0.52306 3.58902,1.16319 5.62673,1.4253 5.24488,0.67202 8.54491,1.32924 11.56513,2.30032 2.71891,0.87408 9.25465,1.58073 19.60628,2.11765 l 6.02681,0.31122 1.23746,-1.19752 c 1.22785,-1.19162 1.23513,-1.24955 1.23513,-8.60366 v -7.40163 l -1.30957,-1.35764 c -1.31955,-1.36713 -8.70549,-2.87477 -19.41322,-3.96016 -4.36361,-0.44109 -8.43661,-1.23018 -9.82524,-1.90566 -0.68836,-0.33485 -3.15315,-0.96188 -5.47786,-1.39372 -2.32471,-0.43185 -5.19203,-1.24746 -6.37106,-1.81094 -1.17903,-0.56348 -3.83718,-1.47221 -5.90583,-2.02068 -2.06986,-0.54847 -4.34927,-1.39908 -5.06383,-1.89213 -0.71575,-0.49419 -2.54619,-1.21329 -4.0706,-1.59895 -1.5244,-0.38451 -3.5347,-1.1847 -4.46601,-1.77936 -0.93132,-0.5935 -2.70641,-1.41126 -3.94499,-1.81771 -1.23858,-0.40529 -2.95373,-1.25705 -3.8124,-1.89212 -1.69351,-1.25224 -2.92448,-1.79892 -4.14037,-1.77035 z m 163.77267,0.13306 c -0.80998,-0.0887 -1.77014,0.31441 -3.08433,1.1885 -1.01945,0.67779 -2.87933,1.61617 -4.1334,2.08381 -1.25406,0.46765 -3.08796,1.36988 -4.07525,2.00264 -0.98847,0.63392 -3.04396,1.46702 -4.56837,1.85153 -1.5244,0.38566 -3.40347,1.13766 -4.17758,1.67112 -0.77292,0.53461 -3.04999,1.37868 -5.06149,1.87634 -2.01031,0.49767 -4.34623,1.31653 -5.18942,1.81996 -0.84437,0.50344 -3.58398,1.3169 -6.08495,1.80418 -2.50215,0.48842 -5.13427,1.17131 -5.85002,1.52002 -1.52321,0.74014 -5.23466,1.43211 -11.54187,2.15147 -2.48907,0.28405 -6.77645,0.90558 -9.52751,1.38246 -2.75108,0.47571 -6.36574,1.07863 -8.03186,1.33959 -4.30644,0.67433 -4.32023,0.70643 -4.33809,9.77637 -0.0179,8.78475 0.12213,9.18415 3.3472,9.53055 4.06943,0.43762 20.39452,-1.13682 24.67476,-2.37925 2.17941,-0.6316 6.26098,-1.46037 9.0716,-1.84026 3.06428,-0.41452 6.14505,-1.14542 7.69923,-1.82899 1.42555,-0.62583 3.98415,-1.37452 5.68719,-1.66434 1.70304,-0.28982 3.99256,-1.03307 5.08941,-1.65082 1.09685,-0.61775 3.34912,-1.45081 5.00333,-1.85379 1.65422,-0.40298 3.8646,-1.21199 4.91263,-1.79741 1.04802,-0.58542 2.87061,-1.3078 4.04966,-1.60572 1.17903,-0.29675 3.3227,-1.21978 4.76375,-2.04999 1.44103,-0.82906 3.59041,-1.85291 4.77539,-2.27551 1.18498,-0.42261 3.19636,-1.65915 4.47066,-2.74686 l 2.31675,-1.97557 -0.77458,-2.58448 c -0.42636,-1.42024 -1.13528,-2.86944 -1.57473,-3.22046 -0.44065,-0.34986 -1.40164,-1.92187 -2.13764,-3.49106 -0.736,-1.56805 -1.56588,-2.98879 -1.84456,-3.15506 -0.27868,-0.16743 -1.03618,-1.11781 -1.68405,-2.11313 -0.71339,-1.09579 -1.37187,-1.67722 -2.18186,-1.76584 z"
       id="path0"
       inkscape:connector-curvature="0"
       sodipodi:nodetypes="ccccccscccccccccsscssccccsccccccccccccccccccccccscccsscccccccsscsscccscccccccscscccssccscccsccccccsccccccccccscccccsccccccccccscccccccsssscccccsccccccsccccccscscscccccccsccscscsccssccssccsccccccccscccccsccccccsscsccscccccsccccccscsccsccssssssccccccccccccccccscccccccccsccscccccccccsccccccccccccsccccssscsssscccccscccsscccsccccccccsscsccsccsccssccsscccccsscccccccccccsccssscccccccsccccccccccscsscscsccccccccccccssccccccccsccccccsccccccccccccsccccccccsccccccccccsssccsssccccccccccccccscccccscccsccccscccccccccccsssscccccccscccccscccscccccccccccccccccccccsccsccccsscccccccccccscccccscccscccccccccccsccccccccccccscsccssccsccsccccssscccccccccccccsccsccsccccccccscccccccccccccccccsscccccccccccccscccccccccscsccccsccccccccccssccccccccscccccccscsccccccccsccscssccccccsccccccccscccccsccccccccsccccccccscccsccccsccccsccsccccsscsccsccccccsccccccccccccsccsccccccccscccccscccccssccscccccccccccccccccccccccccccccccccccccsccccsscccccccccscccccccccccccccssssccsccccccccccscccccccc" />
  </g>
</svg>
