<?xml version="1.0" encoding="UTF-8"?>
<svg
   xmlns="http://www.w3.org/2000/svg"
   version="1.0"
   width="48pt"
   height="48pt"
   viewBox="0 0 48 48"
   preserveAspectRatio="xMidYMid meet"
   id="svg16">
  <g
     transform="matrix(0.00735427,0,0,-0.00735862,-1.6296383,49.800151)"
     style="fill:#766054;stroke:none">
    <path
       d="m 3325,6763 c -120,-5 -344,-33 -480,-59 C 2344,6606 1844,6372 1435,6044 1308,5941 1075,5713 973,5590 548,5079 291,4460 229,3797 214,3635 223,3238 245,3080 363,2235 777,1503 1443,962 2261,297 3373,77 4405,375 c 396,115 799,325 1130,591 127,103 360,331 462,454 425,511 682,1130 744,1793 15,162 6,559 -16,717 -118,845 -532,1577 -1198,2118 -523,425 -1162,670 -1857,712 -159,9 -192,10 -345,3 z m 390,-174 c 651,-55 1222,-283 1715,-682 167,-135 410,-387 541,-562 185,-245 353,-567 453,-867 111,-333 158,-625 157,-988 0,-534 -133,-1032 -405,-1513 C 5925,1531 5520,1117 5078,854 4371,433 3551,308 2757,500 c -474,114 -937,353 -1294,668 -119,105 -313,306 -398,412 -551,685 -785,1590 -634,2450 140,799 584,1504 1255,1990 570,414 1336,629 2029,569 z"
       />
    <path
       d="M 3250,6349 C 2885,6320 2505,6210 2165,6035 1643,5767 1213,5336 947,4813 726,4381 630,3984 630,3510 c 0,-590 163,-1118 503,-1625 105,-157 384,-463 512,-562 22,-17 69,-55 105,-83 258,-206 664,-404 1017,-496 284,-74 619,-106 903,-85 292,22 516,67 745,149 338,122 563,246 858,472 96,73 259,226 321,300 16,19 55,65 86,101 321,372 547,876 637,1421 26,153 25,625 -1,798 -72,484 -241,891 -547,1320 -164,229 -492,532 -748,690 -555,343 -1143,489 -1771,439 z m -33,-155 c 85,-155 257,-634 236,-655 -5,-5 -26,-12 -45,-15 l -35,-6 -34,73 c -97,214 -301,540 -324,518 -3,-3 4,-32 15,-65 51,-146 120,-473 120,-566 0,-28 -5,-37 -25,-46 -14,-7 -32,-12 -39,-12 -6,0 -39,36 -71,80 -32,44 -62,77 -66,73 -3,-5 -13,-55 -22,-112 -15,-103 -30,-139 -46,-113 -4,7 -13,108 -20,225 -6,116 -14,224 -17,240 -3,15 -1,27 4,27 5,0 44,-33 86,-74 42,-40 78,-71 80,-67 8,15 -100,338 -168,502 -6,14 4,19 61,28 69,12 250,29 268,26 6,0 24,-28 42,-61 z m 200,-36 c 102,-172 263,-510 263,-552 0,-17 -67,-34 -79,-20 -4,5 -16,29 -26,54 -44,105 -178,374 -244,487 -39,68 -71,125 -71,128 0,3 22,5 48,5 h 49 z m 391,77 c 100,-8 193,-17 207,-20 14,-3 36,-7 50,-10 31,-7 55,-45 125,-195 46,-101 114,-280 107,-285 -1,-1 -52,-10 -114,-19 -61,-10 -172,-30 -247,-45 -130,-27 -156,-27 -156,2 0,21 -158,346 -224,460 -80,137 -80,127 1,127 37,0 150,-7 251,-15 z M 2544,6091 c 17,-6 18,-19 17,-147 -1,-76 -4,-171 -7,-211 l -7,-71 -186,5 c -212,6 -342,-8 -534,-57 -63,-16 -121,-31 -128,-32 -7,-2 -14,4 -16,12 -6,36 224,200 482,344 77,44 161,92 186,107 80,51 148,68 193,50 z m 2076,-471 c 21,-11 48,-33 59,-49 25,-34 91,-171 91,-187 0,-7 -56,-20 -142,-34 -629,-99 -1145,-248 -1538,-445 -120,-60 -200,-107 -272,-161 -67,-51 -60,-65 -84,162 -17,154 -17,163 0,208 16,42 25,50 84,80 81,41 317,134 427,169 267,85 534,150 890,217 350,66 423,72 485,40 z m 715,-254 c 14,-9 32,-27 41,-41 9,-13 115,-411 235,-882 240,-939 238,-926 184,-983 -16,-16 -42,-34 -59,-40 -46,-15 -759,-170 -763,-166 -2,2 7,29 21,60 51,116 54,224 6,301 -33,54 -118,105 -173,105 -32,0 -42,-10 -212,-230 -98,-127 -182,-227 -186,-223 -4,4 -95,394 -204,865 -140,608 -195,866 -190,887 8,35 38,76 68,93 43,23 1131,278 1170,274 21,-2 49,-11 62,-20 z M 2630,5221 c 0,-5 -24,-15 -52,-21 -82,-20 -293,-94 -398,-140 -114,-50 -260,-135 -315,-183 l -40,-34 35,-8 c 126,-26 434,-140 573,-212 91,-47 207,-126 207,-142 0,-4 -30,-11 -67,-15 -153,-15 -404,-77 -583,-143 -219,-82 -497,-231 -667,-359 -111,-84 -111,-84 -72,-28 47,68 190,216 277,286 188,149 435,257 697,304 l 40,7 -71,33 c -135,63 -499,155 -709,179 -33,4 -66,11 -74,15 -26,14 313,196 514,275 143,57 305,108 470,151 168,42 235,52 235,35 z m -32,-193 c -10,-84 -8,-103 12,-103 11,0 18,-21 26,-80 17,-114 21,-227 9,-232 -6,-1 -48,20 -95,47 -105,63 -240,128 -342,166 -43,16 -78,32 -78,35 0,21 123,115 197,151 95,46 214,87 254,88 h 25 z m 1206,10 c 27,-42 76,-205 97,-324 13,-78 22,-185 26,-313 l 6,-194 -49,7 c -75,11 -117,26 -511,191 -202,85 -369,152 -372,149 -5,-5 95,-202 162,-319 122,-212 348,-327 609,-310 75,5 102,3 125,-8 54,-29 89,-79 122,-177 41,-120 116,-266 180,-350 27,-36 48,-66 48,-66 -1,-1 -33,5 -72,12 -175,36 -478,163 -560,235 -94,83 -8,-50 92,-141 122,-112 298,-209 499,-276 60,-20 111,-38 112,-39 11,-10 -284,-355 -302,-355 -18,0 -120,61 -219,130 -109,76 -356,319 -444,435 -250,334 -432,712 -544,1133 l -31,114 39,40 c 127,132 527,320 923,436 49,14 48,14 64,-10 z M 2500,4334 c -41,-19 -81,-37 -88,-42 -37,-20 -2,-27 155,-32 183,-5 184,-6 169,-66 -6,-24 -8,-24 -119,-24 -61,-1 -147,-7 -191,-15 -78,-14 -191,-61 -191,-80 0,-5 47,-15 105,-22 178,-21 351,-68 471,-128 47,-25 72,-57 166,-220 253,-437 291,-499 382,-620 116,-154 241,-294 377,-423 l 124,-117 v -132 c 0,-73 -4,-134 -10,-138 -10,-6 -4,-16 -140,215 -104,175 -181,294 -321,490 -41,58 -78,113 -82,123 -3,9 -12,17 -19,18 -7,0 -40,32 -73,71 -94,110 -306,301 -450,404 -83,60 -192,134 -198,134 -2,0 -37,18 -78,41 -76,42 -213,99 -284,118 -69,19 -207,24 -295,12 -109,-16 -262,-72 -361,-132 -44,-27 -83,-49 -86,-49 -7,0 -95,-63 -163,-118 -31,-25 -56,-39 -58,-33 -5,14 79,131 152,214 70,79 225,212 327,279 207,138 510,260 729,293 126,19 132,17 50,-21 z m 1070,-183 c 73,-35 76,-51 10,-51 -62,0 -106,23 -119,63 -10,28 -10,28 22,22 17,-4 57,-19 87,-34 z M 2269,3623 c 76,-19 161,-55 229,-94 67,-40 232,-199 257,-249 20,-40 30,-45 -91,47 -86,66 -216,134 -314,165 -64,20 -96,23 -215,23 -126,0 -148,-3 -220,-27 -457,-155 -688,-736 -449,-1129 71,-118 185,-223 339,-312 87,-51 80,-59 -27,-32 -197,52 -347,174 -439,360 -55,112 -79,216 -86,365 -10,241 53,432 203,614 119,145 330,260 523,287 72,9 221,1 290,-18 z m 2618,7 c 50,-30 76,-91 71,-164 -3,-50 -15,-84 -65,-186 -34,-69 -98,-185 -142,-258 -75,-124 -111,-189 -111,-199 0,-3 51,43 113,102 117,110 199,162 236,150 50,-16 65,-111 32,-206 -19,-57 -70,-160 -121,-247 -36,-59 -32,-60 59,-5 103,62 169,69 205,20 40,-54 33,-218 -16,-360 -11,-32 -17,-61 -14,-64 3,-3 34,7 68,22 35,16 87,34 117,41 101,24 144,-19 163,-162 17,-124 -30,-227 -116,-258 -15,-5 -17,-3 -12,16 4,13 9,36 13,52 5,26 4,27 -14,17 -29,-15 -62,-75 -74,-135 -36,-178 -81,-266 -199,-386 -130,-132 -265,-221 -475,-315 -98,-44 -236,-131 -383,-242 l -43,-33 -85,78 c -99,90 -202,161 -282,193 -31,12 -59,24 -61,25 -2,2 15,24 38,50 23,27 45,65 51,88 14,55 22,68 53,86 36,20 94,4 232,-65 61,-30 113,-55 118,-55 11,0 9,29 -5,66 -11,30 -7,48 39,186 61,182 77,248 65,260 -15,15 -27,-9 -97,-187 -37,-93 -69,-172 -71,-174 -3,-3 -25,5 -50,17 -41,20 -45,26 -40,48 29,116 46,378 28,442 -13,45 -27,26 -39,-53 -26,-168 -55,-301 -67,-313 -11,-11 -18,-8 -40,18 l -26,32 v 470 470 l 222,286 c 392,506 499,645 581,750 44,56 87,102 96,102 9,0 30,-9 48,-20 z M 2270,3333 c 131,-59 227,-173 269,-315 28,-96 36,-169 26,-244 -8,-67 -7,-69 -70,72 -63,138 -180,308 -295,425 -55,57 -100,105 -100,107 0,12 107,-16 170,-45 z m -395,-208 c 182,-130 361,-346 455,-549 43,-91 73,-176 66,-183 -16,-16 -196,126 -326,257 -143,145 -243,294 -303,458 -37,101 -36,109 11,82 20,-12 64,-41 97,-65 z m 1415,-235 c 11,-107 20,-205 20,-217 0,-13 4,-23 9,-23 5,0 35,40 67,90 33,49 62,90 65,90 8,0 13,-38 40,-322 13,-131 26,-238 29,-238 3,0 19,56 34,125 16,69 32,125 36,125 6,0 281,-796 280,-812 0,-22 -24,4 -120,128 -58,76 -113,146 -122,158 l -18,21 -27,-30 c -14,-16 -54,-61 -89,-99 l -63,-69 -5,34 c -3,19 -17,164 -31,322 -13,159 -27,293 -31,298 -3,5 -41,-23 -85,-63 -44,-40 -84,-75 -90,-76 -6,-2 -7,12 -4,35 7,51 75,693 75,712 0,8 2,12 5,10 2,-3 13,-92 25,-199 z m -1624,-91 c 67,-186 197,-393 340,-540 35,-37 64,-70 64,-74 0,-16 -79,4 -154,38 -182,85 -289,262 -312,521 -4,54 -3,90 7,118 15,46 17,43 55,-63 z m 1375,-519 c 25,-34 39,-114 39,-223 v -90 l 46,-49 c 25,-26 52,-65 60,-84 15,-37 21,-179 9,-227 -4,-16 6,-46 33,-98 185,-354 223,-431 218,-437 -4,-3 -26,0 -49,8 -43,14 -94,16 -275,11 -109,-3 -174,15 -180,50 -3,14 38,79 124,198 26,36 29,57 14,81 -7,12 -42,16 -170,20 -214,7 -221,19 -70,133 63,48 137,124 146,150 3,10 -2,29 -11,43 l -17,26 -122,-7 c -163,-10 -195,7 -146,75 11,15 17,30 13,34 -3,3 -62,6 -129,6 -115,0 -219,13 -237,29 -4,4 45,24 110,44 111,34 260,102 328,150 16,12 69,59 117,105 95,90 116,98 149,52 z"
       />
    <path
       d="m 4795,4998 c -75,-221 -255,-779 -255,-791 0,-9 -4,-19 -10,-22 -32,-20 5,-37 239,-114 137,-44 256,-81 265,-81 20,0 391,347 391,365 0,7 -128,146 -283,308 -156,163 -293,308 -304,322 -21,27 -36,32 -43,13 z m 74,-292 52,-230 -28,-27 c -39,-38 -336,-260 -340,-255 -3,2 4,21 15,43 20,39 217,634 227,687 4,16 10,25 14,20 5,-5 32,-112 60,-238 z"
      />
    <path
       d="m 5358,4186 c -42,-39 -128,-119 -190,-178 l -114,-107 -245,79 c -134,44 -248,78 -253,77 -4,-1 90,-90 210,-197 121,-107 252,-225 293,-263 41,-37 78,-64 82,-60 11,11 300,706 297,714 -2,4 -38,-25 -80,-65 z m -519,-247 c 69,-23 146,-44 171,-48 l 45,-6 33,-149 c 18,-82 31,-151 28,-153 -2,-2 -26,18 -52,44 -27,27 -121,113 -209,192 -88,79 -161,148 -163,152 -6,15 18,10 147,-32 z"
    />
    <path
       d="m 3725,4993 c 25,-61 38,-126 51,-263 13,-146 37,-348 51,-432 6,-43 23,-52 23,-13 0,14 -7,69 -15,123 -7,53 -21,176 -30,272 -9,96 -21,195 -26,218 -13,61 -36,112 -50,112 -7,0 -8,-7 -4,-17 z"
    />
    <path
       d="m 3940,3823 c 0,-44 140,-366 186,-427 31,-43 23,-4 -13,61 -47,83 -103,206 -133,293 -23,64 -40,95 -40,73 z"
    />
  </g>
</svg>
