<?xml version="1.0" encoding="UTF-8" standalone="no"?>
<svg
   xmlns:dc="http://purl.org/dc/elements/1.1/"
   xmlns:cc="http://creativecommons.org/ns#"
   xmlns:rdf="http://www.w3.org/1999/02/22-rdf-syntax-ns#"
   xmlns:svg="http://www.w3.org/2000/svg"
   xmlns="http://www.w3.org/2000/svg"
   xmlns:sodipodi="http://sodipodi.sourceforge.net/DTD/sodipodi-0.dtd"
   xmlns:inkscape="http://www.inkscape.org/namespaces/inkscape"
   width="38"
   height="38"
   viewBox="0 0 38 38"
   fill="none"
   version="1.1"
   id="svg8"
   sodipodi:docname="now.svg"
   inkscape:version="0.92.3 (2405546, 2018-03-11)">
  <metadata
     id="metadata14">
    <rdf:RDF>
      <cc:Work
         rdf:about="">
        <dc:format>image/svg+xml</dc:format>
        <dc:type
           rdf:resource="http://purl.org/dc/dcmitype/StillImage" />
      </cc:Work>
    </rdf:RDF>
  </metadata>
  <defs
     id="defs12" />
  <sodipodi:namedview
     pagecolor="#ffffff"
     bordercolor="#666666"
     borderopacity="1"
     objecttolerance="10"
     gridtolerance="10"
     guidetolerance="10"
     inkscape:pageopacity="0"
     inkscape:pageshadow="2"
     inkscape:window-width="1965"
     inkscape:window-height="1014"
     id="namedview10"
     showgrid="false"
     inkscape:zoom="17.566021"
     inkscape:cx="14.212627"
     inkscape:cy="19.076736"
     inkscape:window-x="67"
     inkscape:window-y="27"
     inkscape:window-maximized="0"
     inkscape:current-layer="svg8" />
  <path
     style="fill:#766054"
     d="M 19 0 C 8.474 0 0 8.474 0 19 C 0 29.526 8.474 38 19 38 C 29.526 38 38 29.526 38 19 C 38 8.474 29.526 0 19 0 z M 17.677734 12.716797 C 19.704334 12.716797 20.980469 14.016528 20.980469 16.111328 C 20.980469 18.206128 19.704334 19.501953 17.677734 19.501953 C 15.646534 19.501953 14.373047 18.206128 14.373047 16.111328 C 14.373047 14.016528 15.651134 12.716797 17.677734 12.716797 z M 7.4335938 12.830078 L 8.9296875 12.830078 L 11.460938 16.230469 L 11.496094 16.230469 L 11.496094 12.830078 L 13.314453 12.830078 L 13.314453 19.388672 L 11.837891 19.388672 L 9.2871094 15.933594 L 9.2519531 15.933594 L 9.2519531 19.388672 L 7.4335938 19.388672 L 7.4335938 12.830078 z M 21.767578 12.830078 L 23.757812 12.830078 L 24.513672 16.974609 L 24.548828 16.974609 L 25.525391 12.830078 L 27.017578 12.830078 L 27.994141 16.974609 L 28.029297 16.974609 L 28.785156 12.830078 L 30.775391 12.830078 L 29.083984 19.388672 L 27.265625 19.388672 L 26.289062 15.634766 L 26.253906 15.634766 L 25.277344 19.388672 L 23.458984 19.388672 L 21.767578 12.830078 z M 17.677734 14.253906 C 16.873434 14.253906 16.335938 14.975328 16.335938 16.111328 C 16.335938 17.242828 16.868934 17.964844 17.677734 17.964844 C 18.486534 17.964844 19.017578 17.242828 19.017578 16.111328 C 19.017578 14.975328 18.482034 14.253906 17.677734 14.253906 z M 13.9375 22.863281 C 15.1197 22.863281 15.865234 23.62185 15.865234 24.84375 C 15.865234 26.06575 15.1197 26.822266 13.9375 26.822266 C 12.7526 26.822266 12.009766 26.06575 12.009766 24.84375 C 12.009766 23.62185 12.7553 22.863281 13.9375 22.863281 z M 7.4863281 22.929688 L 10.625 22.929688 L 10.625 23.824219 L 9.6171875 23.824219 L 9.6171875 26.755859 L 8.4941406 26.755859 L 8.4941406 23.824219 L 7.4863281 23.824219 L 7.4863281 22.929688 z M 17.582031 22.929688 L 18.705078 22.929688 L 18.705078 24.552734 L 18.726562 24.552734 L 19.910156 22.929688 L 21.087891 22.929688 L 19.830078 24.628906 L 21.146484 26.755859 L 19.839844 26.755859 L 19.005859 25.349609 L 18.705078 25.753906 L 18.705078 26.755859 L 17.582031 26.755859 L 17.582031 22.929688 z M 22.691406 22.929688 L 25.390625 22.929688 L 25.390625 23.824219 L 23.816406 23.824219 L 23.816406 24.441406 L 25.291016 24.441406 L 25.291016 25.246094 L 23.816406 25.246094 L 23.816406 25.861328 L 25.390625 25.861328 L 25.390625 26.755859 L 22.691406 26.755859 L 22.691406 22.929688 z M 27.195312 22.929688 L 28.066406 22.929688 L 29.542969 24.912109 L 29.564453 24.912109 L 29.564453 22.929688 L 30.625 22.929688 L 30.625 26.755859 L 29.763672 26.755859 L 28.275391 24.740234 L 28.253906 24.740234 L 28.253906 26.755859 L 27.195312 26.755859 L 27.195312 22.929688 z M 13.9375 23.759766 C 13.4683 23.759766 13.15625 24.18115 13.15625 24.84375 C 13.15625 25.50385 13.4657 25.925781 13.9375 25.925781 C 14.4093 25.925781 14.720703 25.50385 14.720703 24.84375 C 14.720703 24.18115 14.4067 23.759766 13.9375 23.759766 z "
     id="rect2" />
</svg>
